<?xml version="1.0" encoding="UTF-8" standalone="no"?>
<!--
   Licensed under the Apache License, Version 2.0 (the "License");
   you may not use this file except in compliance with the License.
   You may obtain a copy of the License at

       http://www.apache.org/licenses/LICENSE-2.0

   Unless required by applicable law or agreed to in writing, software
   distributed under the License is distributed on an "AS IS" BASIS,
   WITHOUT WARRANTIES OR CONDITIONS OF ANY KIND, either express or implied.
   See the License for the specific language governing permissions and
   limitations under the License.
 -->
<!-- Generator: Adobe Illustrator 19.0.0, SVG Export Plug-In . SVG Version: 6.00 Build 0)  -->

<svg
   xmlns:dc="http://purl.org/dc/elements/1.1/"
   xmlns:cc="http://creativecommons.org/ns#"
   xmlns:rdf="http://www.w3.org/1999/02/22-rdf-syntax-ns#"
   xmlns:svg="http://www.w3.org/2000/svg"
   xmlns="http://www.w3.org/2000/svg"
   xmlns:sodipodi="http://sodipodi.sourceforge.net/DTD/sodipodi-0.dtd"
   xmlns:inkscape="http://www.inkscape.org/namespaces/inkscape"
   version="1.1"
   id="Layer_1"
   x="0px"
   y="0px"
   viewBox="0 0 4360.6 4360.6"
   enable-background="new 0 0 4360.6 4360.6"
   xml:space="preserve"
   inkscape:version="0.48.4 r9939"
   width="100%"
   height="100%"
   sodipodi:docname="pb.svg"
   inkscape:export-filename="/home/solomax/work/openmeetings/application/branches/3.1.x/openmeetings-server/src/site/resources/images/logos/pb.png"
   inkscape:export-xdpi="8.2600002"
   inkscape:export-ydpi="8.2600002"><metadata
     id="metadata3716"><rdf:RDF><cc:Work
         rdf:about=""><dc:format>image/svg+xml</dc:format><dc:type
           rdf:resource="http://purl.org/dc/dcmitype/StillImage" /><dc:title></dc:title></cc:Work></rdf:RDF></metadata><defs
     id="defs3714" /><sodipodi:namedview
     pagecolor="#ffffff"
     bordercolor="#666666"
     borderopacity="1"
     objecttolerance="10"
     gridtolerance="10"
     guidetolerance="10"
     inkscape:pageopacity="0"
     inkscape:pageshadow="2"
     inkscape:window-width="1213"
     inkscape:window-height="909"
     id="namedview3712"
     showgrid="false"
     inkscape:zoom="0.056568542"
     inkscape:cx="4585.7633"
     inkscape:cy="1374.6401"
     inkscape:window-x="49"
     inkscape:window-y="24"
     inkscape:window-maximized="0"
     inkscape:current-layer="Layer_1" /><rect
     x="0"
     y="0"
     fill="none"
     width="4360.6"
     height="4360.6"
     id="rect3532" /><path
     d="M 2180.3,0 C 976.2,0 0,976.2 0,2180.3 0,3384.4 976.2,4360.6 2180.3,4360.6 3384.4,4360.6 4360.6,3384.4 4360.6,2180.3 4360.6,976.2 3384.5,0 2180.3,0 z m 18.3,3650.4 c -217.5,0 -423.8,-47.6 -609.5,-132.4 -103.268,191.9222 230.027,111.4559 -36.1,-16.9 C 1064.7,3262 728.4,2760.4 728.4,2180.2 c 0,-811.9 658.2,-1470.1 1470.1,-1470.1 811.9,0 1470.1,658.2 1470.1,1470.1 0,811.9 -658.1,1470.2 -1470,1470.2 z"
     id="path3534"
     inkscape:connector-curvature="0"
     style="fill:#555759"
     sodipodi:nodetypes="ssssssccssss" /><path
     fill="#FFFFFF"
     d="M197.4,2084.7l15.4-135.3c2.7-24.1,6.3-41.9,9.7-54.2c5-17.2,12.2-31.6,21.6-42.2  c9.9-11.1,22.5-19.3,38.4-25.1c15.3-5.3,32.3-7.5,49.8-5.5c30.6,3.5,55.5,16.5,74.3,38.4c18.9,21.4,25.4,57.7,19.6,108.8l-10.4,91.7  l145.8,16.6l-5.4,47.6L197.4,2084.7z M384.2,1963.8c3.5-30.6,0-53.3-10.1-67.1c-9.5-14.3-25.3-22.7-45.9-25c-15-1.7-28,0.8-39.9,7.1  c-11.4,6.3-19.5,15.5-24.5,27.7c-2.9,7.8-5.6,22.2-8,43.8l-10.4,91.7l128.3,14.6L384.2,1963.8z"
     id="path3536" /><path
     fill="#FFFFFF"
     d="M304.9,1681.4c-21.8-41.3-25-86-8.8-134.3c10.5-31.6,27.8-57.7,51.6-77.9c23.3-20.4,50.7-32.5,82.4-36.7  c31.3-4.5,64.1-0.9,98.5,10.6c34.9,11.7,63.6,29.2,86.2,52.2c22.6,23,36.9,50.1,42.2,80.6c5.4,30,3.3,60.1-6.6,89.8  c-10.9,32.5-28.1,58.6-52.4,78.7c-23.8,20.2-51.7,32.2-82.9,36.6c-31.1,4-62,1.1-92.2-9C366.5,1753.1,327.2,1722.9,304.9,1681.4   M548.3,1724.5c30.8-14.2,52-37.9,63.2-71.4c11.4-33.9,8.8-66.1-7.7-96.1c-16.5-30-46.8-52.3-90.8-67c-28.2-9.4-54.2-12.8-77.8-10.6  c-23.8,2.7-44.7,11.1-62.2,25.5c-17.5,14.3-30,32.5-37.5,55c-10.7,32-9,63.5,5.3,93.8c14.2,30.8,47.2,54.6,98.8,71.8  C480.7,1739.1,516.9,1739,548.3,1724.5"
     id="path3538" /><path
     fill="#FFFFFF"
     d="M390.9,1298.2l26.4-41.1l228.7,81.5c24.5,8.5,47.6,17.3,70.8,26.9c-27.8-28.6-43.7-44.9-47.3-49.5  l-168.3-189.6l31.1-48.4l181.7,54.9c45,13.9,86.2,29,122.7,45.9c-16.4-16.5-35.1-35.8-56.4-57.8L615.7,948.1l26.2-40.7L892,1186.1  l-24.8,38.6l-272.4-84.4c-22.8-7.4-36.8-11.7-41.6-13.6c11.4,12.1,21.4,22.7,29.9,31.8l189.8,213l-26.4,41.2L390.9,1298.2z"
     id="path3540" /><polygon
     fill="#FFFFFF"
     points="717.7,833.7 905.4,652 935.2,682.8 782,831.2 858.8,910.5 1002.2,771.6 1031.7,802.1 888.2,941   973.8,1029.4 1132.9,875.4 1162.3,905.8 968.9,1093.1 "
     id="polygon3542" /><path
     fill="#FFFFFF"
     d="M1003.2,573.4l134.6-86.2c27.2-17.4,49.5-27.5,67.2-31.6c17.5-3.5,34.8-0.8,52.3,7.8  c17.2,8.2,31.2,20.7,41.8,37.3c13.9,21.6,18.4,44.5,14.3,68.1c-4.5,23.9-20.2,47.1-47,69.7c13.9-1.7,25.2-1.8,34-0.2  c18.7,3,38.9,9.2,59.4,18.8l105.7,49.1l-50.5,32.4l-80.4-37.7c-23.6-10.6-42.3-18.4-56.2-23.3c-13.6-4.5-24.8-6.9-33.2-6.9  c-8.7-0.4-16.2,0.8-23.4,3.6c-5.5,1.7-13,5.9-23.6,12.7l-46.7,29.9l86.5,135l-39.9,25.6L1003.2,573.4z M1215.7,626.5  c18.3-11.7,31.6-22.6,39.8-33.3c7.7-10.4,11.3-21.6,11.6-33.2c0.1-12-3.1-22.6-9.6-32.7c-9-14-21.7-22.7-38.3-25.2  c-16.2-2.8-35.7,3.1-58.2,17.5l-96.4,61.8l64.5,100.6L1215.7,626.5z"
     id="path3544" /><polygon
     fill="#FFFFFF"
     points="1359.6,362.3 1603.2,268.1 1618.6,308 1419.7,385 1459.6,488 1645.8,415.9 1661,455.4 1474.8,527.5   1519.2,642.2 1725.6,562.4 1740.9,601.8 1489.8,699 "
     id="polygon3546" /><path
     fill="#FFFFFF"
     d="M1723.2,234l122.8-20.9c27.3-4.7,49.1-6.3,64-5.8c21.2,1.5,40.1,7,56.6,16.9c21.6,12.7,38.9,30.2,52.6,53.4  c13.7,23.3,22.9,50.3,28.3,82.1c4.7,27.3,5.7,51.7,2.8,73.7c-2.9,22-8,40.2-15.5,55.8c-7.6,15.1-16.7,27.9-26.8,37.8  c-10.6,10-23.5,18.3-39.7,25.2c-15.7,6.8-34.3,12-56.1,15.7l-128.2,21.8L1723.2,234z M1900,527.1c23.4-4,41.3-9.6,54-16.4  c12.7-6.3,22.1-14.5,28.7-23.8c9.1-12.8,15.5-29.2,18.2-49.2c3.2-20,2.3-43.4-2.2-70.2c-6.3-37.3-17.2-65.1-33.1-82.8  c-15.3-17.9-32.5-28.7-51.1-32.7c-13.8-2.8-34-1.4-62.3,3.5l-74.6,12.7l46.3,271.9L1900,527.1z"
     id="path3548" /><path
     fill="#FFFFFF"
     d="M2287.4,178.5l134.9,14.4c27.1,2.9,48.8,8.8,64.5,18.1c15.8,8.8,27.6,21.7,35.5,37.8  c7.9,16.1,10.8,32.1,9,48.6c-1.6,15.5-7.2,29.6-17.2,42.3c-9.5,12.7-23.2,22.4-41.1,28.6c20.9,8.8,36.8,21.2,46.7,38  c9.9,16.8,13.9,35.5,11.7,56c-1.8,17-7,32.2-15.6,46c-9.1,13.7-18.8,23.9-30.2,30.7c-11.3,6.4-25,11-41,13.4  c-16.5,2.3-35.7,2.2-58.8-0.2L2249,537.5L2287.4,178.5z M2390.3,510c15.5,1.7,26.2,1.8,32.8,1.5c10.7-0.9,20.6-2.9,28.1-6.6  c8.1-4.2,14.8-10.1,20.2-18.1c6-8.5,9.6-18.2,10.8-29.8c1.4-13.1-0.9-24.9-6.8-35.7c-5.9-10.8-14.7-18.8-26.3-24.1  c-11.6-5.3-28.9-9.2-52-11.6l-82.7-8.9l-13.3,123.8L2390.3,510z M2396.6,342.8c21,2.2,36.3,2.4,45.5,0.8  c12.4-2.7,22.1-7.3,29.5-15.1c6.9-7.9,11-17.6,12.3-30.1c1.3-12-0.6-22.9-5.1-32.5c-5-9.7-12.4-17-22.6-21.2  c-10.2-4.6-28.6-8.1-54.1-10.8l-71.7-7.7l-11.6,108.3L2396.6,342.8z"
     id="path3550" /><path
     fill="#FFFFFF"
     d="M2706.1,460.7l-71.5-240l55.4,17.1l35.8,125.1c7.1,23.3,12.5,46.6,17.2,69.2c16.1-14.5,34.5-31.5,56.3-49.1  l98.4-81l53,16.4l-198.8,156.6l-45.1,146l-45.8-14.1L2706.1,460.7z"
     id="path3552" /><path
     fill="#FFFFFF"
     d="M1894.8,4229.1l217.6-469.9l49.9,2.2l175.2,487l-64.7-2.8l-50.5-142.6l-200.8-8.8l-62.1,137.7L1894.8,4229.1  z M2134.3,3830.4l-98.6,217.1l175.2,7.6L2134.3,3830.4z"
     id="path3554" /><path
     fill="#FFFFFF"
     d="M2467.7,4229.4l-96.5-469.1l195.6-40.2c20.7-4.3,40.6-3.9,59.8,1.1c19.2,5,36.5,13.4,52,25.1  c15.5,11.7,28.6,25.8,39.3,42.2c10.7,16.4,18,33.8,21.8,52.3c4,19.4,4.5,38.8,1.6,58.2s-9,37.4-18.2,54  c-9.2,16.6-21.4,30.8-36.7,42.6c-15.2,11.9-33.2,19.9-53.9,24.2l-140.1,28.8l34.7,168.5L2467.7,4229.4z M2481.6,3995.9l136.7-28.2  c12.3-2.5,22.9-7.3,31.8-14.5c8.9-7.1,15.9-15.9,21.1-26.4c5.2-10.5,8.5-22.1,10.1-34.8c1.5-12.7,0.9-25.7-1.8-38.9  c-2.8-13.7-7.8-25.9-14.8-36.9c-7.1-11-15.4-20-24.9-27.3c-9.5-7.2-20-12.2-31.3-14.9c-11.4-2.7-22.8-2.9-34.2-0.5l-132.8,27.3  L2481.6,3995.9z"
     id="path3556" /><path
     fill="#FFFFFF"
     d="M2857.3,4146.2l-20.7-517.4l45.4-20.8l378.1,353.4l-58.9,27l-110-103.9l-182.7,83.8l7.6,150.9L2857.3,4146.2  z M2888.5,3682.2l11.3,238.2l159.4-73.1L2888.5,3682.2z"
     id="path3558" /><path
     fill="#FFFFFF"
     d="M3158.7,3736.2c-18.9-23.1-33.6-49.4-44.2-78.9c-10.6-29.5-15.5-59.8-14.7-90.8c0.8-31,8-61.4,21.6-91.1  c13.6-29.7,34.8-56.4,63.6-80c34.2-28,70-44.2,107.2-48.8c37.2-4.5,71.9,0.8,104.1,15.9l-18.1,56.3c-15.8-7.5-31.1-12.2-46-13.8  c-14.9-1.7-29.2-1.1-42.8,1.7c-13.7,2.7-26.4,7.2-38.3,13.3c-11.9,6.1-22.7,13.1-32.4,21.1c-21.3,17.4-36.5,37.2-45.7,59.4  c-9.2,22.2-13.6,45.1-13.1,68.4c0.5,23.4,5.2,46.3,14.2,68.7c9,22.4,20.9,42.6,35.6,60.7c16.5,20.2,35.5,36.7,57.1,49.4  c21.5,12.8,44,21.3,67.4,25.6c23.4,4.3,46.6,4,69.6-0.9c23-5,44-15.2,63.2-30.9c10.1-8.2,19.4-18,28-29.2  c8.6-11.2,15.4-23.6,20.6-37.1c5.2-13.6,8.5-28,10.1-43.4c1.5-15.4,0.2-31.2-4.2-47.6l58.7-11c5.6,19.4,7.5,39.2,5.5,59.1  c-2,20-6.9,39.4-14.6,58.3c-7.7,18.9-17.7,36.7-29.9,53.3c-12.3,16.6-25.8,31-40.6,43.1c-26.3,21.5-55.2,35.5-86.6,41.9  c-31.4,6.5-62.7,6.9-93.9,1.5c-31.2-5.4-60.9-16.4-89-32.8C3202.8,3781.2,3178.7,3760.7,3158.7,3736.2"
     id="path3560" /><polygon
     fill="#FFFFFF"
     points="3601.3,2939.1 3991.9,3216.2 3956.8,3265.7 3779.1,3139.7 3626.5,3354.8 3804.2,3480.8   3769.1,3530.3 3378.5,3253.2 3413.6,3203.7 3582.5,3323.5 3735.1,3108.4 3566.2,2988.6 "
     id="polygon3562" /><polygon
     fill="#FFFFFF"
     points="4137.7,2705 4188.2,2724 4073.6,3028.3 3625.5,2859.4 3737.9,2560.9 3788.4,2579.9 3697.3,2821.6   3842.5,2876.3 3921.7,2666.1 3969.1,2684 3889.9,2894.2 4044.5,2952.4 "
     id="polygon3564" /><path
     fill="#FFFFFF"
     d="M3939.3,1325.4c0.8,72.4-57.2,131.8-129.6,132.6c-72.4,0.8-131.8-57.2-132.6-129.6  c-0.8-72.4,57.2-131.8,129.6-132.6C3879.1,1194.9,3938.5,1253,3939.3,1325.4"
     id="path3566" /><path
     fill="#FFFFFF"
     d="M951.6,3378.5c0.8,72.4-57.2,131.8-129.6,132.6c-72.4,0.8-131.8-57.2-132.6-129.6  c-0.8-72.4,57.2-131.8,129.6-132.6C891.4,3248,950.8,3306,951.6,3378.5"
     id="path3568" /><rect
     x="0"
     y="0"
     fill="none"
     width="4360.6"
     height="4360.6"
     id="rect3572" /><rect
     x="0"
     y="0"
     fill="none"
     width="4360.6"
     height="4360.6"
     id="rect3574" /><linearGradient
     id="SVGID_1_"
     gradientUnits="userSpaceOnUse"
     x1="-4960.8643"
     y1="1037.3204"
     x2="-4545.2925"
     y2="1523.2587"
     gradientTransform="matrix(0.4226 -0.9063 0.9063 0.4226 3653.6313 -3688.6418)"><stop
       offset="0"
       style="stop-color:#F69923"
       id="stop3577" /><stop
       offset="0.3123"
       style="stop-color:#F79A23"
       id="stop3579" /><stop
       offset="0.8383"
       style="stop-color:#E97826"
       id="stop3581" /></linearGradient><path
     fill="none"
     d="M1828.8,2837.7c0.9-2.4,1.8-4.7,2.7-7.1c18.5-48.8,36.9-96.4,55-142.6c20.4-51.9,40.5-102.2,60.4-151  c21-51.4,41.6-101,62-148.9c21.4-50.3,42.4-98.8,63.1-145.4c16.8-37.9,33.4-74.7,49.8-110.3c5.5-11.9,10.9-23.6,16.3-35.2  c10.7-23.1,21.3-45.6,31.8-67.7c9.7-20.4,19.3-40.3,28.8-59.9c3.2-6.5,6.3-13,9.5-19.4c0.5-1.1,1-2.1,1.5-3.1l-10.3,1.1l-8.2-16.2  c-0.8,1.6-1.6,3.1-2.4,4.7c-14.8,29.3-29.4,58.9-43.9,88.8c-8.4,17.3-16.7,34.6-25,52c-23,48.2-45.6,96.9-67.8,145.9  c-22.5,49.5-44.5,99.3-66.1,149.1c-21.2,49-42,97.9-62.3,146.8c-20.3,48.8-40.2,97.5-59.6,145.7c-20.2,50.4-39.9,100.5-59.1,149.8  c-4.3,11.1-8.6,22.3-12.9,33.4c-15.3,39.9-30.2,79.3-44.8,118.1l12.9,25.6l11.6-1.3c0.4-1.2,0.9-2.3,1.3-3.5  C1791.9,2936,1810.4,2886.2,1828.8,2837.7z"
     id="path3589" /><linearGradient
     id="SVGID_2_"
     gradientUnits="userSpaceOnUse"
     x1="-8036.5088"
     y1="983.6841"
     x2="-5071.6265"
     y2="983.6841"
     gradientTransform="matrix(0.4226 -0.9063 0.9063 0.4226 3653.6313 -3688.6418)"><stop
       offset="0.3233"
       style="stop-color:#9E2064"
       id="stop3602" /><stop
       offset="0.6302"
       style="stop-color:#C92037"
       id="stop3604" /><stop
       offset="0.7514"
       style="stop-color:#CD2335"
       id="stop3606" /><stop
       offset="1"
       style="stop-color:#E97826"
       id="stop3608" /></linearGradient><linearGradient
     id="SVGID_3_"
     gradientUnits="userSpaceOnUse"
     x1="-7678.6079"
     y1="1281.0576"
     x2="-5911.8262"
     y2="1281.0576"
     gradientTransform="matrix(0.4226 -0.9063 0.9063 0.4226 3653.6313 -3688.6418)"><stop
       offset="0"
       style="stop-color:#282662"
       id="stop3613" /><stop
       offset="9.548390e-02"
       style="stop-color:#662E8D"
       id="stop3615" /><stop
       offset="0.7882"
       style="stop-color:#9F2064"
       id="stop3617" /><stop
       offset="0.9487"
       style="stop-color:#CD2032"
       id="stop3619" /></linearGradient><linearGradient
     id="SVGID_4_"
     gradientUnits="userSpaceOnUse"
     x1="-7869.9854"
     y1="956.0568"
     x2="-4905.1025"
     y2="956.0568"
     gradientTransform="matrix(0.4226 -0.9063 0.9063 0.4226 3653.6313 -3688.6418)"><stop
       offset="0.3233"
       style="stop-color:#9E2064"
       id="stop3624" /><stop
       offset="0.6302"
       style="stop-color:#C92037"
       id="stop3626" /><stop
       offset="0.7514"
       style="stop-color:#CD2335"
       id="stop3628" /><stop
       offset="1"
       style="stop-color:#E97826"
       id="stop3630" /></linearGradient><linearGradient
     id="SVGID_5_"
     gradientUnits="userSpaceOnUse"
     x1="-7653.7529"
     y1="996.1702"
     x2="-6095.6182"
     y2="996.1702"
     gradientTransform="matrix(0.4226 -0.9063 0.9063 0.4226 3653.6313 -3688.6418)"><stop
       offset="0"
       style="stop-color:#282662"
       id="stop3635" /><stop
       offset="9.548390e-02"
       style="stop-color:#662E8D"
       id="stop3637" /><stop
       offset="0.7882"
       style="stop-color:#9F2064"
       id="stop3639" /><stop
       offset="0.9487"
       style="stop-color:#CD2032"
       id="stop3641" /></linearGradient><linearGradient
     id="SVGID_6_"
     gradientUnits="userSpaceOnUse"
     x1="-7869.9849"
     y1="1262.9109"
     x2="-4905.1035"
     y2="1262.9109"
     gradientTransform="matrix(0.4226 -0.9063 0.9063 0.4226 3653.6313 -3688.6418)"><stop
       offset="0.3233"
       style="stop-color:#9E2064"
       id="stop3646" /><stop
       offset="0.6302"
       style="stop-color:#C92037"
       id="stop3648" /><stop
       offset="0.7514"
       style="stop-color:#CD2335"
       id="stop3650" /><stop
       offset="1"
       style="stop-color:#E97826"
       id="stop3652" /></linearGradient><linearGradient
     id="SVGID_7_"
     gradientUnits="userSpaceOnUse"
     x1="-8053.9058"
     y1="1247.6735"
     x2="-5089.0244"
     y2="1247.6735"
     gradientTransform="matrix(0.4226 -0.9063 0.9063 0.4226 3653.6313 -3688.6418)"><stop
       offset="0.3233"
       style="stop-color:#9E2064"
       id="stop3657" /><stop
       offset="0.6302"
       style="stop-color:#C92037"
       id="stop3659" /><stop
       offset="0.7514"
       style="stop-color:#CD2335"
       id="stop3661" /><stop
       offset="1"
       style="stop-color:#E97826"
       id="stop3663" /></linearGradient><linearGradient
     id="SVGID_8_"
     gradientUnits="userSpaceOnUse"
     x1="-7869.9834"
     y1="1354.1755"
     x2="-4905.1045"
     y2="1354.1755"
     gradientTransform="matrix(0.4226 -0.9063 0.9063 0.4226 3653.6313 -3688.6418)"><stop
       offset="0.3233"
       style="stop-color:#9E2064"
       id="stop3672" /><stop
       offset="0.6302"
       style="stop-color:#C92037"
       id="stop3674" /><stop
       offset="0.7514"
       style="stop-color:#CD2335"
       id="stop3676" /><stop
       offset="1"
       style="stop-color:#E97826"
       id="stop3678" /></linearGradient><linearGradient
     id="SVGID_9_"
     gradientUnits="userSpaceOnUse"
     x1="-7869.9829"
     y1="1343.7327"
     x2="-4905.1045"
     y2="1343.7327"
     gradientTransform="matrix(0.4226 -0.9063 0.9063 0.4226 3653.6313 -3688.6418)"><stop
       offset="0.3233"
       style="stop-color:#9E2064"
       id="stop3687" /><stop
       offset="0.6302"
       style="stop-color:#C92037"
       id="stop3689" /><stop
       offset="0.7514"
       style="stop-color:#CD2335"
       id="stop3691" /><stop
       offset="1"
       style="stop-color:#E97826"
       id="stop3693" /></linearGradient><linearGradient
     id="SVGID_10_"
     gradientUnits="userSpaceOnUse"
     x1="-6204.3574"
     y1="1341.6384"
     x2="-5549.0215"
     y2="1341.6384"
     gradientTransform="matrix(0.4226 -0.9063 0.9063 0.4226 3653.6313 -3688.6418)"><stop
       offset="0.3233"
       style="stop-color:#9E2064"
       id="stop3702" /><stop
       offset="0.6302"
       style="stop-color:#C92037"
       id="stop3704" /><stop
       offset="0.7514"
       style="stop-color:#CD2335"
       id="stop3706" /><stop
       offset="1"
       style="stop-color:#E97826"
       id="stop3708" /></linearGradient></svg>
