<?xml version="1.0" encoding="UTF-8"?>
<!--
	Licensed under the Apache License, Version 2.0 (the "License") http://www.apache.org/licenses/LICENSE-2.0
 -->
<svg version="1.1" baseProfile="tiny" xmlns="http://www.w3.org/2000/svg" width="80" height="100" viewBox="-55 -15 80 100">
<path d="M0 0 C0.68707031 0.44472656 1.37414063 0.88945312 2.08203125 1.34765625 C3.01015625 1.94578125 3.93828125 2.54390625 4.89453125 3.16015625 C10.99675517 9.26238017 13.91446315 16.18706419 14.1484375 24.7890625 C13.65302387 34.38207187 8.65393618 41.8315048 3.31640625 49.53515625 C0.93585056 53.03065574 0.74268544 55.90559856 0.26953125 60.09765625 C-0.68474385 67.00378049 -1.9216721 70.1294117 -6.60546875 75.16015625 C-10.25049724 77.03192764 -13.84135325 77.46109251 -17.91796875 77.34765625 C-22.70788652 75.72089172 -25.15834492 73.53716582 -27.91796875 69.34765625 C-28.74147343 66.40923351 -29.14982169 63.42439061 -29.60546875 60.41015625 C-31.09002223 52.0149175 -33.89093758 46.06591536 -38.89453125 39.23046875 C-43.73714167 32.3311512 -43.78074113 25.57994273 -42.91796875 17.34765625 C-40.56483247 9.57390246 -35.68480166 3.18085323 -28.703125 -0.96875 C-19.12942676 -5.42199375 -9.13776303 -5.29960731 0 0 Z M-34.41796875 10.16015625 C-38.42235173 16.2177781 -39.52476974 21.97452694 -38.44921875 29.13671875 C-36.78693258 36.05476267 -32.38050965 41.88561309 -28.50390625 47.734375 C-26.99599049 50.21909333 -25.91005595 52.62187212 -24.91796875 55.34765625 C-23.43296875 54.85265625 -23.43296875 54.85265625 -21.91796875 54.34765625 C-22.89332173 50.38837309 -23.87389411 46.43040114 -24.85546875 42.47265625 C-25.13326172 41.34472656 -25.41105469 40.21679688 -25.69726562 39.0546875 C-25.96474609 37.97832031 -26.23222656 36.90195312 -26.5078125 35.79296875 C-26.75394287 34.79797363 -27.00007324 33.80297852 -27.25366211 32.77783203 C-27.82845738 30.36372812 -27.82845738 30.36372812 -28.91796875 28.34765625 C-28.17546875 28.67765625 -27.43296875 29.00765625 -26.66796875 29.34765625 C-23.77913563 30.57548496 -23.77913563 30.57548496 -19.91796875 30.34765625 C-19.83546875 29.23390625 -19.75296875 28.12015625 -19.66796875 26.97265625 C-18.91796875 23.34765625 -18.91796875 23.34765625 -16.85546875 21.91015625 C-16.21609375 21.72453125 -15.57671875 21.53890625 -14.91796875 21.34765625 C-11.91796875 23.34765625 -11.91796875 23.34765625 -11.40625 25.29296875 C-11.24348958 27.31119792 -11.08072917 29.32942708 -10.91796875 31.34765625 C-7.44073139 30.0919872 -4.82414417 28.61422469 -1.91796875 26.34765625 C-2.00884766 26.9523877 -2.09972656 27.55711914 -2.19335938 28.18017578 C-2.60606045 30.94368565 -3.01206752 33.70813979 -3.41796875 36.47265625 C-3.56105469 37.42398438 -3.70414063 38.3753125 -3.8515625 39.35546875 C-4.53758212 44.05960331 -5.11067882 48.57808195 -4.91796875 53.34765625 C-2.53528956 49.77363746 -0.21953553 46.1617679 2.08203125 42.53515625 C2.75878906 41.48618164 2.75878906 41.48618164 3.44921875 40.41601562 C7.52520364 33.97041231 10.00761807 28.14903085 9.08203125 20.34765625 C7.52208191 13.49174445 3.9058779 8.30720879 -1.62890625 4.0234375 C-12.41788171 -2.46360471 -26.6278583 0.64308155 -34.41796875 10.16015625 Z M-21.91796875 35.34765625 C-20.72905798 42.0565099 -19.4420134 48.70717599 -17.91796875 55.34765625 C-15.60796875 55.34765625 -13.29796875 55.34765625 -10.91796875 55.34765625 C-9.11956557 48.99329836 -8.41211983 42.9363373 -7.91796875 36.34765625 C-14.84796875 35.85265625 -14.84796875 35.85265625 -21.91796875 35.34765625 Z M-5.91796875 53.34765625 C-4.91796875 55.34765625 -4.91796875 55.34765625 -4.91796875 55.34765625 Z M-5.91796875 59.34765625 C-11.85796875 60.99765625 -17.79796875 62.64765625 -23.91796875 64.34765625 C-19.36528865 65.48582628 -16.51496163 64.67974113 -12.16796875 63.41015625 C-11.47058594 63.21486328 -10.77320313 63.01957031 -10.0546875 62.81835938 C-8.33997902 62.33683165 -6.62861998 61.84340468 -4.91796875 61.34765625 C-5.24796875 60.68765625 -5.57796875 60.02765625 -5.91796875 59.34765625 Z M-7.91796875 66.34765625 C-11.87796875 67.33765625 -15.83796875 68.32765625 -19.91796875 69.34765625 C-19.91796875 70.00765625 -19.91796875 70.66765625 -19.91796875 71.34765625 C-15.62796875 70.35765625 -11.33796875 69.36765625 -6.91796875 68.34765625 C-7.24796875 67.68765625 -7.57796875 67.02765625 -7.91796875 66.34765625z" fill="currentColor" />
</svg>
