<?xml version="1.0" ?>
<!--
Author: DinosoftLabs
License: Free for commercial use
Licensed under the Apache License, Version 2.0 (the "License") http://www.apache.org/licenses/LICENSE-2.0
-->
<svg enable-background="new 0 0 52 52" id="Layer_1" version="1.1" viewBox="0 0 52 52" xml:space="preserve" xmlns="http://www.w3.org/2000/svg" xmlns:xlink="http://www.w3.org/1999/xlink"><g><g><g><path d="M26,44C14.4208984,44,5,34.5795898,5,23S14.4208984,2,26,2s21,9.4204102,21,21S37.5790901,44,26,44z M26,4     C15.5234375,4,7,12.5234375,7,23s8.5234375,19,19,19s19-8.5234375,19-19S36.4765625,4,26,4z"/></g></g><g><g><path d="M26,35c-6.6171875,0-12-5.3833008-12-12s5.3828125-12,12-12c1.2587891,0,2.5,0.1953125,3.6894531,0.5805664     l-0.6152344,1.9023438C28.0839844,13.1625977,27.0498047,13,26,13c-5.5136719,0-10,4.4858398-10,10s4.4863281,10,10,10     s10-4.4858398,10-10c0-2.4643555-0.8164063-4.6303711-2.4257813-6.4375l1.4941406-1.3300781     C37.0136719,17.4169922,38,20.0302734,38,23C38,29.6166992,32.6171875,35,26,35z"/></g></g><g><g><path d="M32,18c-2.2060547,0-4-1.7944336-4-4s1.7939453-4,4-4s4,1.7944336,4,4S34.2060547,18,32,18z M32,12     c-1.1025391,0-2,0.8969727-2,2s0.8974609,2,2,2s2-0.8969727,2-2S33.1025391,12,32,12z"/></g></g><g><g><polygon points="41.0498047,50 10.9501953,50 17.9443359,41.0454102 19.5205078,42.2768555 15.0498047,48 36.9501953,48      32.6171875,42.4541016 34.1933594,41.2226563    "/></g></g></g></svg>
