<?xml version="1.0" encoding="UTF-8" standalone="no"?>
<!--
  Licensed to the Apache Software Foundation (ASF) under one
  or more contributor license agreements.  See the NOTICE file
  distributed with this work for additional information
  regarding copyright ownership.  The ASF licenses this file
  to you under the Apache License, Version 2.0 (the
  "License"); you may not use this file except in compliance
  with the License.  You may obtain a copy of the License at
  
      http://www.apache.org/licenses/LICENSE-2.0
    	  
  Unless required by applicable law or agreed to in writing,
  software distributed under the License is distributed on an
  "AS IS" BASIS, WITHOUT WARRANTIES OR CONDITIONS OF ANY
  KIND, either express or implied.  See the License for the
  specific language governing permissions and limitations
  under the License.
  
-->
<!-- Created with Inkscape (http://www.inkscape.org/) -->

<svg
   xmlns:dc="http://purl.org/dc/elements/1.1/"
   xmlns:cc="http://creativecommons.org/ns#"
   xmlns:rdf="http://www.w3.org/1999/02/22-rdf-syntax-ns#"
   xmlns:svg="http://www.w3.org/2000/svg"
   xmlns="http://www.w3.org/2000/svg"
   xmlns:xlink="http://www.w3.org/1999/xlink"
   xmlns:sodipodi="http://sodipodi.sourceforge.net/DTD/sodipodi-0.dtd"
   xmlns:inkscape="http://www.inkscape.org/namespaces/inkscape"
   width="250"
   height="250"
   viewBox="0 0 250 250"
   id="svg36270"
   version="1.1"
   inkscape:version="0.91 r13725"
   inkscape:export-filename="profile.png"
   inkscape:export-xdpi="96"
   inkscape:export-ydpi="96"
   sodipodi:docname="profile.svg">
  <defs
     id="defs36272">
    <linearGradient
       inkscape:collect="always"
       id="linearGradient4914">
      <stop
         style="stop-color:#000000;stop-opacity:1;"
         offset="0"
         id="stop4916" />
      <stop
         id="stop4922"
         offset="0.36884227"
         style="stop-color:#000000;stop-opacity:0.81176471;" />
      <stop
         style="stop-color:#000000;stop-opacity:0;"
         offset="1"
         id="stop4918" />
    </linearGradient>
    <linearGradient
       inkscape:collect="always"
       id="linearGradient4879">
      <stop
         style="stop-color:#000000;stop-opacity:1;"
         offset="0"
         id="stop4881" />
      <stop
         id="stop4889"
         offset="0.73370647"
         style="stop-color:#000000;stop-opacity:0.6;" />
      <stop
         id="stop4887"
         offset="0.88708621"
         style="stop-color:#000000;stop-opacity:0.10588235;" />
      <stop
         style="stop-color:#000000;stop-opacity:0;"
         offset="1"
         id="stop4883" />
    </linearGradient>
    <linearGradient
       inkscape:collect="always"
       id="linearGradient4847">
      <stop
         style="stop-color:#dedede;stop-opacity:1;"
         offset="0"
         id="stop4849" />
      <stop
         id="stop4855"
         offset="0.53365529"
         style="stop-color:#dedede;stop-opacity:0.67843137;" />
      <stop
         style="stop-color:#dedede;stop-opacity:0;"
         offset="1"
         id="stop4851" />
    </linearGradient>
    <linearGradient
       id="SVGID_1_"
       gradientUnits="userSpaceOnUse"
       x1="-5167.0962"
       y1="697.55487"
       x2="-4570.1162"
       y2="1395.619"
       gradientTransform="matrix(0.09137247,-0.04116687,-0.04260621,-0.0882857,2325.0101,738.09393)">
      <stop
         offset="0"
         style="stop-color:#F69923"
         id="stop32752" />
      <stop
         offset="0.3123"
         style="stop-color:#F79A23"
         id="stop32754" />
      <stop
         offset="0.8383"
         style="stop-color:#E97826"
         id="stop32756" />
    </linearGradient>
    <linearGradient
       id="SVGID_2_"
       gradientUnits="userSpaceOnUse"
       x1="-9585.3418"
       y1="620.50482"
       x2="-5326.209"
       y2="620.50482"
       gradientTransform="matrix(0.09137247,-0.04116687,-0.04260621,-0.0882857,2325.0101,738.09393)">
      <stop
         offset="0.3233"
         style="stop-color:#9E2064"
         id="stop32777" />
      <stop
         offset="0.6302"
         style="stop-color:#C92037"
         id="stop32779" />
      <stop
         offset="0.7514"
         style="stop-color:#CD2335"
         id="stop32781" />
      <stop
         offset="1"
         style="stop-color:#E97826"
         id="stop32783" />
    </linearGradient>
    <linearGradient
       id="SVGID_3_"
       gradientUnits="userSpaceOnUse"
       x1="-9071.207"
       y1="1047.6898"
       x2="-6533.1782"
       y2="1047.6898"
       gradientTransform="matrix(0.09137247,-0.04116687,-0.04260621,-0.0882857,2325.0101,738.09393)">
      <stop
         offset="0"
         style="stop-color:#282662"
         id="stop32788" />
      <stop
         offset="9.548390e-02"
         style="stop-color:#662E8D"
         id="stop32790" />
      <stop
         offset="0.7882"
         style="stop-color:#9F2064"
         id="stop32792" />
      <stop
         offset="0.9487"
         style="stop-color:#CD2032"
         id="stop32794" />
    </linearGradient>
    <linearGradient
       id="SVGID_4_"
       gradientUnits="userSpaceOnUse"
       x1="-9346.126"
       y1="580.81702"
       x2="-5086.9941"
       y2="580.81702"
       gradientTransform="matrix(0.09137247,-0.04116687,-0.04260621,-0.0882857,2325.0101,738.09393)">
      <stop
         offset="0.3233"
         style="stop-color:#9E2064"
         id="stop32799" />
      <stop
         offset="0.6302"
         style="stop-color:#C92037"
         id="stop32801" />
      <stop
         offset="0.7514"
         style="stop-color:#CD2335"
         id="stop32803" />
      <stop
         offset="1"
         style="stop-color:#E97826"
         id="stop32805" />
    </linearGradient>
    <linearGradient
       id="SVGID_5_"
       gradientUnits="userSpaceOnUse"
       x1="-9035.5029"
       y1="638.4408"
       x2="-6797.2012"
       y2="638.4408"
       gradientTransform="matrix(0.09137247,-0.04116687,-0.04260621,-0.0882857,2325.0101,738.09393)">
      <stop
         offset="0"
         style="stop-color:#282662"
         id="stop32810" />
      <stop
         offset="9.548390e-02"
         style="stop-color:#662E8D"
         id="stop32812" />
      <stop
         offset="0.7882"
         style="stop-color:#9F2064"
         id="stop32814" />
      <stop
         offset="0.9487"
         style="stop-color:#CD2032"
         id="stop32816" />
    </linearGradient>
    <linearGradient
       id="SVGID_6_"
       gradientUnits="userSpaceOnUse"
       x1="-9346.126"
       y1="1021.6218"
       x2="-5086.9941"
       y2="1021.6218"
       gradientTransform="matrix(0.09137247,-0.04116687,-0.04260621,-0.0882857,2325.0101,738.09393)">
      <stop
         offset="0.3233"
         style="stop-color:#9E2064"
         id="stop32821" />
      <stop
         offset="0.6302"
         style="stop-color:#C92037"
         id="stop32823" />
      <stop
         offset="0.7514"
         style="stop-color:#CD2335"
         id="stop32825" />
      <stop
         offset="1"
         style="stop-color:#E97826"
         id="stop32827" />
    </linearGradient>
    <linearGradient
       id="SVGID_7_"
       gradientUnits="userSpaceOnUse"
       x1="-9610.334"
       y1="999.73297"
       x2="-5351.2017"
       y2="999.73297"
       gradientTransform="matrix(0.09137247,-0.04116687,-0.04260621,-0.0882857,2325.0101,738.09393)">
      <stop
         offset="0.3233"
         style="stop-color:#9E2064"
         id="stop32832" />
      <stop
         offset="0.6302"
         style="stop-color:#C92037"
         id="stop32834" />
      <stop
         offset="0.7514"
         style="stop-color:#CD2335"
         id="stop32836" />
      <stop
         offset="1"
         style="stop-color:#E97826"
         id="stop32838" />
    </linearGradient>
    <linearGradient
       id="SVGID_8_"
       gradientUnits="userSpaceOnUse"
       x1="-9346.126"
       y1="1152.7261"
       x2="-5086.9941"
       y2="1152.7261"
       gradientTransform="matrix(0.09137247,-0.04116687,-0.04260621,-0.0882857,2325.0101,738.09393)">
      <stop
         offset="0.3233"
         style="stop-color:#9E2064"
         id="stop32847" />
      <stop
         offset="0.6302"
         style="stop-color:#C92037"
         id="stop32849" />
      <stop
         offset="0.7514"
         style="stop-color:#CD2335"
         id="stop32851" />
      <stop
         offset="1"
         style="stop-color:#E97826"
         id="stop32853" />
    </linearGradient>
    <linearGradient
       id="SVGID_9_"
       gradientUnits="userSpaceOnUse"
       x1="-9346.126"
       y1="1137.7247"
       x2="-5086.9941"
       y2="1137.7247"
       gradientTransform="matrix(0.09137247,-0.04116687,-0.04260621,-0.0882857,2325.0101,738.09393)">
      <stop
         offset="0.3233"
         style="stop-color:#9E2064"
         id="stop32862" />
      <stop
         offset="0.6302"
         style="stop-color:#C92037"
         id="stop32864" />
      <stop
         offset="0.7514"
         style="stop-color:#CD2335"
         id="stop32866" />
      <stop
         offset="1"
         style="stop-color:#E97826"
         id="stop32868" />
    </linearGradient>
    <linearGradient
       id="SVGID_10_"
       gradientUnits="userSpaceOnUse"
       x1="-6953.4072"
       y1="1134.7161"
       x2="-6011.9995"
       y2="1134.7161"
       gradientTransform="matrix(0.09137247,-0.04116687,-0.04260621,-0.0882857,2325.0101,738.09393)">
      <stop
         offset="0.3233"
         style="stop-color:#9E2064"
         id="stop32877" />
      <stop
         offset="0.6302"
         style="stop-color:#C92037"
         id="stop32879" />
      <stop
         offset="0.7514"
         style="stop-color:#CD2335"
         id="stop32881" />
      <stop
         offset="1"
         style="stop-color:#E97826"
         id="stop32883" />
    </linearGradient>
    <clipPath
       clipPathUnits="userSpaceOnUse"
       id="clipPath37143">
      <rect
         style="opacity:1;fill:#9f2064;fill-opacity:1;stroke:none;stroke-width:32;stroke-miterlimit:4;stroke-dasharray:none;stroke-opacity:1"
         id="rect37145"
         width="183.95464"
         height="199.10631"
         x="398.80246"
         y="673.84192" />
    </clipPath>
    <clipPath
       clipPathUnits="userSpaceOnUse"
       id="clipPath37147">
      <rect
         style="opacity:1;fill:#9f2064;fill-opacity:1;stroke:none;stroke-width:32;stroke-miterlimit:4;stroke-dasharray:none;stroke-opacity:1"
         id="rect37149"
         width="183.95464"
         height="199.10631"
         x="394.73016"
         y="910.00812" />
    </clipPath>
    <linearGradient
       id="SVGID_1_-3"
       gradientUnits="userSpaceOnUse"
       x1="-5167.0962"
       y1="697.55487"
       x2="-4570.1162"
       y2="1395.619"
       gradientTransform="matrix(-0.10417015,-0.01796774,0.02025119,-0.10139679,-473.00941,626.78222)">
      <stop
         offset="0"
         style="stop-color:#F69923"
         id="stop32752-6" />
      <stop
         offset="0.3123"
         style="stop-color:#F79A23"
         id="stop32754-0" />
      <stop
         offset="0.8383"
         style="stop-color:#E97826"
         id="stop32756-6" />
    </linearGradient>
    <linearGradient
       id="SVGID_2_-2"
       gradientUnits="userSpaceOnUse"
       x1="-9585.3418"
       y1="620.50482"
       x2="-5326.209"
       y2="620.50482"
       gradientTransform="matrix(-0.10417015,-0.01796774,0.02025119,-0.10139679,-473.00941,626.78222)">
      <stop
         offset="0.3233"
         style="stop-color:#9E2064"
         id="stop32777-2" />
      <stop
         offset="0.6302"
         style="stop-color:#C92037"
         id="stop32779-3" />
      <stop
         offset="0.7514"
         style="stop-color:#CD2335"
         id="stop32781-9" />
      <stop
         offset="1"
         style="stop-color:#E97826"
         id="stop32783-1" />
    </linearGradient>
    <linearGradient
       id="SVGID_3_-2"
       gradientUnits="userSpaceOnUse"
       x1="-9071.207"
       y1="1047.6898"
       x2="-6533.1782"
       y2="1047.6898"
       gradientTransform="matrix(-0.10417015,-0.01796774,0.02025119,-0.10139679,-473.00941,626.78222)">
      <stop
         offset="0"
         style="stop-color:#282662"
         id="stop32788-9" />
      <stop
         offset="9.548390e-02"
         style="stop-color:#662E8D"
         id="stop32790-7" />
      <stop
         offset="0.7882"
         style="stop-color:#9F2064"
         id="stop32792-6" />
      <stop
         offset="0.9487"
         style="stop-color:#CD2032"
         id="stop32794-1" />
    </linearGradient>
    <linearGradient
       id="SVGID_4_-6"
       gradientUnits="userSpaceOnUse"
       x1="-9346.126"
       y1="580.81702"
       x2="-5086.9941"
       y2="580.81702"
       gradientTransform="matrix(-0.10417015,-0.01796774,0.02025119,-0.10139679,-473.00941,626.78222)">
      <stop
         offset="0.3233"
         style="stop-color:#9E2064"
         id="stop32799-3" />
      <stop
         offset="0.6302"
         style="stop-color:#C92037"
         id="stop32801-8" />
      <stop
         offset="0.7514"
         style="stop-color:#CD2335"
         id="stop32803-9" />
      <stop
         offset="1"
         style="stop-color:#E97826"
         id="stop32805-5" />
    </linearGradient>
    <linearGradient
       id="SVGID_5_-8"
       gradientUnits="userSpaceOnUse"
       x1="-9035.5029"
       y1="638.4408"
       x2="-6797.2012"
       y2="638.4408"
       gradientTransform="matrix(-0.10417015,-0.01796774,0.02025119,-0.10139679,-473.00941,626.78222)">
      <stop
         offset="0"
         style="stop-color:#282662"
         id="stop32810-3" />
      <stop
         offset="9.548390e-02"
         style="stop-color:#662E8D"
         id="stop32812-7" />
      <stop
         offset="0.7882"
         style="stop-color:#9F2064"
         id="stop32814-3" />
      <stop
         offset="0.9487"
         style="stop-color:#CD2032"
         id="stop32816-2" />
    </linearGradient>
    <linearGradient
       id="SVGID_6_-0"
       gradientUnits="userSpaceOnUse"
       x1="-9346.126"
       y1="1021.6218"
       x2="-5086.9941"
       y2="1021.6218"
       gradientTransform="matrix(-0.10417015,-0.01796774,0.02025119,-0.10139679,-473.00941,626.78222)">
      <stop
         offset="0.3233"
         style="stop-color:#9E2064"
         id="stop32821-8" />
      <stop
         offset="0.6302"
         style="stop-color:#C92037"
         id="stop32823-1" />
      <stop
         offset="0.7514"
         style="stop-color:#CD2335"
         id="stop32825-3" />
      <stop
         offset="1"
         style="stop-color:#E97826"
         id="stop32827-7" />
    </linearGradient>
    <linearGradient
       id="SVGID_7_-1"
       gradientUnits="userSpaceOnUse"
       x1="-9610.334"
       y1="999.73297"
       x2="-5351.2017"
       y2="999.73297"
       gradientTransform="matrix(-0.10417015,-0.01796774,0.02025119,-0.10139679,-473.00941,626.78222)">
      <stop
         offset="0.3233"
         style="stop-color:#9E2064"
         id="stop32832-2" />
      <stop
         offset="0.6302"
         style="stop-color:#C92037"
         id="stop32834-1" />
      <stop
         offset="0.7514"
         style="stop-color:#CD2335"
         id="stop32836-7" />
      <stop
         offset="1"
         style="stop-color:#E97826"
         id="stop32838-4" />
    </linearGradient>
    <linearGradient
       id="SVGID_8_-7"
       gradientUnits="userSpaceOnUse"
       x1="-9346.126"
       y1="1152.7261"
       x2="-5086.9941"
       y2="1152.7261"
       gradientTransform="matrix(-0.10417015,-0.01796774,0.02025119,-0.10139679,-473.00941,626.78222)">
      <stop
         offset="0.3233"
         style="stop-color:#9E2064"
         id="stop32847-1" />
      <stop
         offset="0.6302"
         style="stop-color:#C92037"
         id="stop32849-6" />
      <stop
         offset="0.7514"
         style="stop-color:#CD2335"
         id="stop32851-0" />
      <stop
         offset="1"
         style="stop-color:#E97826"
         id="stop32853-2" />
    </linearGradient>
    <linearGradient
       id="SVGID_9_-8"
       gradientUnits="userSpaceOnUse"
       x1="-9346.126"
       y1="1137.7247"
       x2="-5086.9941"
       y2="1137.7247"
       gradientTransform="matrix(-0.10417015,-0.01796774,0.02025119,-0.10139679,-473.00941,626.78222)">
      <stop
         offset="0.3233"
         style="stop-color:#9E2064"
         id="stop32862-2" />
      <stop
         offset="0.6302"
         style="stop-color:#C92037"
         id="stop32864-1" />
      <stop
         offset="0.7514"
         style="stop-color:#CD2335"
         id="stop32866-7" />
      <stop
         offset="1"
         style="stop-color:#E97826"
         id="stop32868-0" />
    </linearGradient>
    <linearGradient
       id="SVGID_10_-5"
       gradientUnits="userSpaceOnUse"
       x1="-6953.4072"
       y1="1134.7161"
       x2="-6011.9995"
       y2="1134.7161"
       gradientTransform="matrix(-0.10417015,-0.01796774,0.02025119,-0.10139679,-473.00941,626.78222)">
      <stop
         offset="0.3233"
         style="stop-color:#9E2064"
         id="stop32877-3" />
      <stop
         offset="0.6302"
         style="stop-color:#C92037"
         id="stop32879-4" />
      <stop
         offset="0.7514"
         style="stop-color:#CD2335"
         id="stop32881-5" />
      <stop
         offset="1"
         style="stop-color:#E97826"
         id="stop32883-4" />
    </linearGradient>
    <linearGradient
       inkscape:collect="always"
       xlink:href="#linearGradient4847"
       id="linearGradient4853"
       x1="124.75383"
       y1="945.79108"
       x2="124.75383"
       y2="1060.4434"
       gradientUnits="userSpaceOnUse" />
    <linearGradient
       inkscape:collect="always"
       xlink:href="#linearGradient4879"
       id="linearGradient4885"
       x1="127.27921"
       y1="1004.3799"
       x2="123.74369"
       y2="781.64124"
       gradientUnits="userSpaceOnUse" />
    <linearGradient
       inkscape:collect="always"
       xlink:href="#linearGradient4914"
       id="linearGradient4920"
       x1="112.52742"
       y1="943.35632"
       x2="112.52742"
       y2="827.83441"
       gradientUnits="userSpaceOnUse" />
  </defs>
  <sodipodi:namedview
     id="base"
     pagecolor="#ffffff"
     bordercolor="#666666"
     borderopacity="1.0"
     inkscape:pageopacity="0.0"
     inkscape:pageshadow="2"
     inkscape:zoom="1.979899"
     inkscape:cx="108.13719"
     inkscape:cy="158.45207"
     inkscape:document-units="px"
     inkscape:current-layer="layer1"
     showgrid="false"
     units="px"
     width="800px"
     inkscape:window-width="1918"
     inkscape:window-height="1059"
     inkscape:window-x="0"
     inkscape:window-y="19"
     inkscape:window-maximized="1" />
  <metadata
     id="metadata36275">
    <rdf:RDF>
      <cc:Work
         rdf:about="">
        <dc:format>image/svg+xml</dc:format>
        <dc:type
           rdf:resource="http://purl.org/dc/dcmitype/StillImage" />
        <dc:title></dc:title>
      </cc:Work>
    </rdf:RDF>
  </metadata>
  <g
     inkscape:label="Layer 1"
     inkscape:groupmode="layer"
     id="layer1"
     transform="translate(0,-802.36216)">
    <path
       style="opacity:1;fill:url(#linearGradient4853);fill-opacity:1;stroke:none;stroke-width:32;stroke-miterlimit:4;stroke-dasharray:none;stroke-opacity:1"
       id="path38159"
       d="m 39.079489,995.80015 c 1.63318,-0.6511 3.18368,-2.3368 4.89955,-1.9534 1.0271,0.2296 -2.10488,1.7094 -1.68093,2.6727 1.79971,4.08935 5.7596,6.94905 7.68893,10.97885 0.32483,0.6785 -1.49402,0.2313 -2.20676,0.4718 -0.14638,0.049 -0.22292,0.5105 -0.28178,0.3677 -2.08441,-5.057 -3.92063,-10.2128 -5.88094,-15.31925 1.73888,0 3.47798,-0.035 5.21665,-0.01 5.49707,0.087 10.58975,0.053 6.06796,12.49765 -0.8498,2.3387 -5.23298,1.3902 -7.45965,0.2795 -2.5448,-1.2693 -5.0473,-3.8304 -5.33206,-6.6599 -0.3687,-3.66375 2.40745,-6.95985 3.61118,-10.43975 2.12764,-0.9643 4.07416,-2.5375 6.38294,-2.893 3.33577,-0.5136 7.16419,-1.27868 10.11915,0.3521 0.90108,0.4973 10.20881,14.93905 0.0944,15.43265 -12.42443,0.6064 -9.94369,-8.41225 -9.61831,-14.29785 1.23256,-1.9944 1.62523,-4.88701 3.69773,-5.98322 6.73434,-3.56198 13.52757,-3.83012 17.38102,3.24826 4.76702,8.75646 -4.04118,11.30196 -12.25108,9.90106 -3.18712,-0.5439 -4.84529,-4.2822 -7.26794,-6.4233 1.27858,-2.3326 1.99741,-5.07518 3.83573,-6.99772 6.00085,-6.27581 12.67252,-8.25285 21.11522,-3.10778 1.93846,1.18131 3.44448,5.25056 1.62843,6.61262 -14.97942,11.23478 -14.49633,6.69858 -15.74149,-0.28959 -0.19852,-1.26922 -2.28152,-10.71394 0.67905,-11.07715 4.73994,-0.58148 9.08632,2.94277 13.62262,4.43513 1.07079,0.35227 4.3172,0.96189 3.19829,1.09865 -16.2338,1.98417 -5.74618,-2.52291 -13.7791,1.40748 -0.61163,-0.40991 -2.52289,-1.49193 -1.83488,-1.22971 1.58032,0.6023 2.95531,2.8473 4.54176,2.26137 4.56935,-1.68761 7.86346,-5.76427 11.98251,-8.36434 0.2206,-0.13928 0.2884,0.8135 0.0295,0.78206 -9.66249,-1.1729 -4.80282,-3.90385 -10.74252,1.73856 -0.0456,0.77341 -0.69218,1.77992 -0.13687,2.32022 5.21911,5.07835 9.66901,-3.47093 12.19,-6.77642 3.70571,-4.85888 -3.28894,-3.21437 -4.74241,-2.31815 -1.6086,0.99188 -2.24437,3.04113 -3.36656,4.5617 -4.1252,0.71087 -0.32186,3.97342 0.63251,3.35405 3.76821,-2.4455 6.83289,-5.83387 10.2794,-8.71508 3.95082,-3.30279 6.14411,-3.73811 -6.95481,2.7309 -0.97107,0.74217 -1.79559,1.73183 -2.91321,2.2265 -0.51282,0.22699 0.51062,-1.05834 0.97715,-1.36954 4.16826,-2.78049 8.33551,-5.6158 12.82622,-7.83819 0.41065,-0.20323 0.8843,0.59584 0.88228,1.05404 -10e-4,0.30104 -0.6029,-0.27624 -0.88616,-0.17428 -2.49694,0.89864 -4.88064,2.08531 -7.32095,3.12797 -0.57654,1.19381 -0.8518,2.58796 -1.72963,3.58142 -0.2718,0.3076 -0.4935,-0.7601 -0.4085,-1.16166 0.4677,-2.20958 0.2309,-5.09212 2.02312,-6.4665 2.98453,-2.28867 7.23329,-2.08227 10.77502,-3.34779 0.25513,-0.0911 -0.5293,-0.32175 -0.7816,-0.223 -1.39377,0.54556 -2.65102,1.39028 -3.97654,2.08542 4.77149,-2.26176 -5.22424,4.27532 -3.59797,3.70828 22.414611,-7.81545 15.947251,-4.46228 11.02855,-5.22743 -2.47134,-0.38446 -5.01529,-2.02145 -7.39699,-1.25803 -1.13579,0.36406 0.11435,2.38266 0.17164,3.57399 4.26049,0.47322 8.83152,1.08668 12.433041,-3.27 1.47268,-1.78148 -4.036821,-2.25348 -6.081961,-3.33043 -0.44371,-0.23366 0.77624,0.85368 1.27473,0.79898 0.3142,-0.0344 0.14562,-1.25173 0.0651,-0.94605 -0.79818,3.03197 -1.48137,6.09305 -2.22206,9.13956 3.86385,5.74388 -3.0248,-4.21599 -2.20466,-7.1665 1.29235,-4.6494 6.0472,-5.8999 8.820571,-3.67825 0.10379,0.0831 -0.27871,0.14261 -0.2887,0.27517 -0.275421,3.65243 -0.373041,7.3161 -0.559541,10.97415 -4.48187,-2.28742 -11.26832,-4.205 -3.49336,-13.27722 5.097701,-5.94826 11.049001,-3.35437 14.316971,0.648 1.64271,2.01187 4.33014,3.88355 4.32591,6.48087 -0.005,2.99236 -2.89946,5.23546 -4.3492,7.85319 -1.41303,0.0248 -2.8509,-0.1904 -4.23909,0.0746 -0.70689,0.1349 2.05576,1.04262 2.13402,0.32723 0.43746,-3.99971 -1.49145,-8.06796 -0.85289,-12.04053 0.18516,-1.15187 2.26096,1.40965 2.37511,2.5707 1.10426,11.23306 1.72656,9.88354 -3.66695,13.08527 0.0882,-0.32117 0.0722,-0.69165 0.26466,-0.96349 7.26814,-10.26747 -12.018931,28.9326 -9.504741,-9.79944 0.25748,-3.96665 8.005351,1.34721 11.450671,3.32969 4.57379,2.63184 -0.84268,7.44889 -1.91571,8.96001 -5.30409,4.0164 -3.94885,2.3633 -11.061421,1.95195 -0.42285,-0.0245 -1.59845,0.52486 -1.23129,0.3137 10.671721,-6.13729 9.765511,-8.50876 9.252931,-1.29289 0.30058,0.51436 1.15067,1.00183 0.90176,1.54308 -0.22636,0.49217 -1.08383,0.0555 -1.62493,0.0293 -0.16081,-0.008 0.63427,-0.11133 0.47549,-0.0847 -4.468201,0.74768 -8.985161,1.24815 -13.403741,2.24806 -0.41919,0.0949 -1.23633,0.8033 -0.84272,0.97588 1.88976,0.82851 4.03371,0.87158 6.05056,1.30739 -3.16455,-5.7127 4.73925,-3.98941 4.78578,-2.23007 0.0121,0.45494 -0.49389,0.77003 -0.66946,1.1899 -1.05675,2.5274 -0.50994,6.55229 -3.02332,7.64199 -23.04768,9.9922 -8.10365,-4.52846 -11.51865,-1.17542 2.84821,-0.63614 5.88011,-0.71792 8.54463,-1.9084 1.24612,-0.55677 1.59322,-2.26625 2.67159,-3.10289 0.2348,-0.18217 1.05021,0.28316 0.78642,0.42002 -5.30786,2.75388 -10.84252,5.04689 -16.24871,7.60229 -0.12357,0.059 0.25953,-0.1221 0.39561,-0.1086 3.12518,0.3092 6.23994,0.7159 9.35993,1.0739 0.68327,-1.8372 1.36653,-3.6744 2.04981,-5.51156 0.0882,0.25037 0.0121,0.66866 0.26474,0.75112 0.21541,0.0704 0.16294,-0.77413 -0.0425,-0.67851 -4.18576,1.94825 -8.30071,4.06615 -12.27702,6.41245 -0.66766,0.394 -2.26429,1.461 -1.54155,1.7414 2.24551,0.8713 4.80754,0.3056 7.21132,0.4585 -4.05393,-5.4651 5.21729,-6.9076 6.43546,-4.5746 0.31863,0.6102 -0.86067,1.1159 -1.45176,1.4688 -4.22299,2.5208 -8.24488,5.6062 -12.92622,7.114 -0.1813,0.058 -3.34183,-3.4738 -1.82953,-1.791 4.39364,-1.2843 8.78727,-2.5685 13.1809,-3.8528 0.11843,-0.4759 0.13656,-1.8667 0.35518,-1.4277 0.52838,1.0611 1.03348,2.3628 0.67271,3.492 -0.81051,2.5367 -1.52841,5.92095 -3.99834,6.91675 -8.36511,3.3728 -9.94186,0.8064 -13.82486,-3.00765 4.24197,-1.4558 8.46112,-2.9799 12.72594,-4.3675 1.00248,-0.3261 4.31255,-0.8824 3.79766,1.9073 -0.58528,3.1712 -1.42201,7.17435 -4.2743,8.67895 -3.30657,1.7443 -7.46857,-0.3521 -11.20348,-0.5143 -0.54705,-0.024 -1.09475,-0.029 -1.64214,-0.043 2.12766,-0.4117 4.71776,0.1518 6.38301,-1.2351 1.49137,-1.2422 0.28713,-4.28895 1.76306,-5.54935 1.16901,-0.9983 4.0439,-1.3225 4.61057,0.1065 0.69292,1.7474 -4.54934,7.87795 -5.22599,9.30595 -0.1124,0.2372 0.49708,0.1684 0.74562,0.2526 -0.0447,-0.3259 -0.21483,-1.2966 -0.13399,-0.9777 0.12583,0.4964 0.69095,1.2214 0.26959,1.5125 -0.38828,0.2683 -0.60922,-0.8062 -0.60882,-1.2782 8.7e-4,-1.0281 1.56767,-3.4033 0.61244,-3.023 -27.09645,10.7884 -8.77723,7.6119 -0.15806,7.0478 -0.67699,0.1057 -1.41839,0.6242 -2.03099,0.3172 -0.38733,-0.194 0.76524,-0.469 0.99466,-0.8365 0.49471,-0.7925 0.89947,-1.6597 1.12895,-2.5653 0.14306,-0.5649 0.54421,-1.6949 -0.0361,-1.7477 -0.60748,-0.055 -0.61042,1.0798 -0.73039,1.6779 -0.62036,3.0926 -0.98728,6.2307 -1.48093,9.3461 1.82662,-1.0522 -3.06039,1.0089 -2.54373,0.3277 0.83928,-1.1064 2.91956,-1.4781 3.02693,-2.8627 0.15414,-1.988 -1.58813,-3.6582 -2.37937,-5.4884 -0.29134,-0.674 0.15856,1.8811 0.87964,2.0193 0.60024,0.1149 0.071,-1.2203 0.1065,-1.8304 -2.59569,-0.6726 -4.78424,1.6439 -7.25456,1.544 -0.83458,-0.034 -1.29059,-2.2906 -1.85983,-1.6793 -0.95151,1.0217 -1.84536,4.2802 -0.45399,4.1639 26.43066,-2.2089 9.18291,-5.9423 5.11735,-7.1991 0.11617,-0.092 2.93395,-2.4623 2.87739,-1.542 -0.19444,3.1632 -1.27127,6.2429 -2.43705,9.1899 -0.1482,0.3745 -1.17751,0.4262 -1.20805,0.025 -0.24757,-3.2561 -0.64078,-6.7133 0.46591,-9.7856 0.46174,-1.2819 2.46088,-1.1703 3.6913,-1.7555 0.96384,-0.8338 1.61722,-2.48305 2.89152,-2.50125 3.74604,-0.054 8.77725,-0.7126 11.0009,2.30255 2.14597,2.9099 0.0446,7.4317 -1.36726,10.7603 -0.54664,1.2887 -2.87121,2.5805 -3.87925,1.6091 -10.90648,-10.5102 -10.55545,-9.6961 -5.72045,-14.40475 5.9309,-5.7013 6.28866,-10.6599 16.84025,1.04895 1.15485,1.2815 -0.56111,5.8563 -1.92737,4.8031 -17.58643,-13.55695 18.260381,-4.231 -11.4536,-9.50565 5.96768,-3.0041 14.71462,-7.6358 20.403161,0.8791 1.55546,2.3283 -0.78152,6.69175 -3.401011,7.68095 -4.03194,1.5226 -9.49459,1.1727 -12.83648,-1.5489 -2.46977,-2.0114 -0.50774,-6.35005 -0.76161,-9.52505 7.62835,-6.80152 5.43279,-7.55861 17.491501,-4.7404 1.37254,0.3208 4.17132,1.3719 3.38133,2.5392 -9.984561,14.75345 -11.312401,9.39695 -16.451171,1.0861 2.44832,-2.1397 4.55623,-4.7471 7.34495,-6.41913 3.240111,-1.94264 6.750971,-3.77618 10.495421,-4.27737 1.59041,-0.21286 5.2052,1.03676 4.22491,2.30708 -2.11377,2.73915 -6.36203,2.74604 -9.40089,4.40022 -0.76546,0.4167 -1.10361,2.0505 -1.92761,1.7665 -1.283931,-0.4424 -1.621261,-2.179 -2.431901,-3.26857 4.553651,-11.77979 0.63128,-9.03501 16.553851,-9.26929 1.25728,-0.0186 4.94554,0.60101 3.69696,0.74982 -2.2691,0.27045 -4.71936,-1.21281 -6.84523,-0.37458 -3.43077,1.35273 -3.85048,9.36202 -2.57711,0.0958 0.41792,-1.98818 -0.53051,-4.99297 1.25375,-5.96451 3.53996,-1.92754 8.01861,-1.7023 12.02568,-1.26629 2.16911,0.23604 3.70689,2.33654 5.7122,3.19643 0.6883,0.29515 -0.94794,-1.4301 -1.69555,-1.47405 -3.64894,-0.21454 -7.42656,1.73477 -10.94129,0.73108 -1.20789,-0.34492 0.24511,-2.50035 0.36767,-3.75053 3.43079,-0.40129 4.26375,-6.54446 7.71321,-7.09139 3.49911,-0.5548 7.0593,1.22275 10.58887,0.91659 0.64793,-0.0562 -0.18835,-1.71409 -0.83691,-1.76249 -4.79796,-0.35804 -2.54297,3.58088 -4.09446,-0.22471 1.14206,-1.306 1.39114,-1.79122 4.02399,-2.08019 3.45378,-0.37907 6.94863,-0.14367 10.42297,-0.10892 0.18196,0.002 0.68164,0.20307 0.50031,0.21839 -3.39671,0.28695 -6.90472,1.4406 -10.20869,0.60171 -1.15264,-0.29266 1.65394,-1.70921 2.48091,-2.56381 1.48988,-1.083 2.64353,-3.00816 4.46963,-3.24898 3.48501,-0.45959 7.05447,0.4386 10.46771,1.27908 0.41038,0.10106 -0.0296,1.06065 -0.43128,1.19231 -2.96706,0.97266 -6.22638,0.8874 -9.16155,1.95242 -1.24251,0.45084 -2.69032,3.75267 -3.08505,2.49122 -0.62979,-2.01257 1.32325,-4.00465 1.98487,-6.00698 3.62763,1.17712 4.29156,-4.84943 7.12448,-4.66612 2.8663,0.18544 9.06582,1.8522 7.4928,4.25549 -2.36932,3.61985 -8.2221,3.92583 -12.5192,3.42386 -1.68061,-0.19633 0.62485,-3.72103 2.04039,-4.64797 2.72717,-1.78583 6.24277,-1.88001 9.36416,-2.82001 10.84925,-0.77784 -1.51081,-0.89715 -5.59692,12.46324 -0.605,1.97821 4.31221,-0.20157 6.06995,-1.29232 1.31621,-0.81676 1.52879,-2.69962 2.41287,-3.97158 0.36455,-0.5245 0.87927,-0.92676 1.3158,-1.39305 0.21719,-0.23197 -0.43848,0.46009 -0.65772,0.69013 -2.34925,12.63936 1.3969,10.76758 -11.94155,10.95567 -0.55409,0.008 -2.03078,-0.31867 -1.55157,-0.59696 2.74868,-1.59623 6.44184,-1.51532 8.82017,-3.62406 2.22995,-1.9772 -4.22027,-7.51866 2.04683,-1.12531 -1.05033,2.62587 -0.83012,6.26141 -3.15096,7.8776 -3.16697,2.20541 -7.51951,1.86084 -11.36119,2.22836 -0.87573,0.0838 -2.95764,-0.16587 -2.4794,-0.90423 2.53491,-3.91372 5.93641,-7.30182 9.63428,-10.14238 0.58985,-0.45309 1.34992,0.77487 1.72218,1.41878 0.97309,1.68317 1.47799,3.59657 2.21699,5.39484 -0.0106,9.3542 2.08625,7.31379 -7.83196,11.98135 -1.23624,0.58178 -4.20049,2.25189 -3.9987,0.90059 0.36538,-2.44679 4.00979,-3.3579 4.71955,-5.72779 0.51888,-1.73252 -1.81122,-3.46238 -1.43723,-5.23183 0.18356,-0.86847 1.49199,0.96215 2.238,1.44323 0.35683,16.53741 3.05261,6.17033 -3.10714,11.571 -0.76222,0.6683 -0.68752,2.18673 -1.626,2.57001 -0.61654,0.25179 0.19945,-1.32188 0.20054,-1.98785 1.1e-4,-0.0665 -0.18995,0.0958 -0.19733,0.0298 -0.0902,-0.80619 -0.0476,-1.62171 -0.0713,-2.43256 -2.96762,1.63493 2.01107,4.54992 0.83121,6.31511 -3.81069,5.7012 -7.8743,6.47 -14.71373,4.9956 -1.08708,-0.2344 -2.69356,-1.7298 -2.04685,-2.6345 3.06561,-4.28842 7.73859,-7.16017 11.60789,-10.74026 0.45573,1.10762 0.96493,2.19472 1.36723,3.32285 1.53565,4.30631 4.17472,7.66791 -1.49927,10.82461 -2.7061,1.5056 -5.96534,1.7617 -9.03722,2.153 -0.57717,0.074 -1.99721,-0.433 -1.5492,-0.8042 2.61225,-2.1645 5.84272,-3.4493 8.76408,-5.1739 -3.20441,-6.20519 1.1005,-2.6395 0.99646,-1.9246 -0.49848,3.4252 -1.01082,6.9489 -2.47841,10.0836 -0.40904,0.8737 -2.36503,1.90555 -2.71352,1.006 -1.6896,-4.3612 1.91896,-3.1879 3.0789,-2.9402 -25.48317,5.74725 -2.73302,1.958 -2.06975,1.4414 1.32527,-1.0323 -0.37464,-3.7038 0.70604,-4.9899 0.80595,-0.9591 0.4117,2.4919 0.34194,3.7427 -0.0455,0.8158 0.0288,1.9515 -0.68197,2.3542 -2.89857,1.64195 -6.27402,2.24195 -9.41104,3.36295 1.53691,-0.076 3.46255,0.7951 4.6107,-0.2295 2.29208,-2.04535 2.51268,-5.73095 4.5974,-7.98725 0.56399,-0.6104 0.96946,1.7291 0.53201,2.4357 -1.75592,2.8363 -3.98532,5.47735 -6.66275,7.46725 -0.54031,0.4016 -1.80823,-1.4366 -1.16877,-1.647 1.23802,-0.4073 2.55555,0.5136 3.83333,0.7703 0.35647,-1.361 0.57568,-2.7657 1.06942,-4.08315 0.0627,-0.1673 0.39338,0.3016 0.29247,0.449 -1.50045,2.19135 -3.13083,4.30205 -4.9011,6.28185 -0.12856,0.1437 -0.6536,-0.029 -0.54648,-0.1893 1.00927,-1.5103 5.38264,-6.18505 2.14772,-2.696 -0.26774,1.1675 0.009,2.6224 -0.80324,3.5024 -1.30818,1.4168 -3.17577,2.357 -5.04488,2.8314 -1.91123,0.4851 -6.80958,1.7078 -5.91528,-0.049 1.65627,-3.2547 5.83063,-4.4583 9.0686,-6.147 0.54538,-0.2844 1.83836,-0.1226 1.77911,0.4896 -0.0935,0.9669 -1.35261,1.3945 -2.02891,2.0918 -1.64108,2.562 -2.18864,6.3522 -4.92322,7.6859 -2.64298,1.2891 -5.91952,-0.2636 -8.76367,-1.0104 -0.95073,-0.2496 -2.89438,-1.1294 -2.26691,-1.886 2.23302,-2.6927 9.70552,-10.85195 12.82753,-7.4865 1.07238,1.156 1.59284,2.7218 2.38926,4.0826 -4.44608,9.1255 -2.79591,13.4064 -14.84824,8.3361 -1.26564,-0.5325 -2.85136,-3.0086 -1.69767,-3.7531 1.75204,-1.1307 4.23316,1.5479 6.19772,0.849 4.83092,-1.7188 6.19303,-8.0341 5.05604,-3.6159 -1.63159,1.4944 2.10983,5.0082 0.36621,5.986 -3.78866,2.1245 -8.40328,2.3514 -12.72099,2.8255 -0.81554,0.09 -2.9738,-1.1927 -2.15337,-1.1921 11.86331,0.01 4.57917,5.3536 13.04649,-6.5129 -2.25414,3.2401 -1.49234,9.0821 -4.9863,11.204 -2.53053,1.5369 -5.8988,-0.5548 -8.82461,-1.0077 -0.5181,-0.08 1.11967,0.1555 1.56862,-0.1152 11.26629,-6.7948 11.84091,-11.8978 10.57772,-5.5912 -4.17776,7.2968 -2.7129,9.2357 -11.85091,8.8908 -0.77435,-0.029 -2.328941,-1.3531 -1.62042,-1.6669 3.51326,-0.761 7.02651,-1.5221 10.53978,-2.2831 -0.17475,-1.3552 -1.41543,-3.0297 -0.52425,-4.0654 0.77209,-0.8974 0.74895,2.246 1.12342,3.369 -1.1863,2.48 -1.17423,6.0722 -3.5589,7.44 -2.58821,1.4846 -5.98954,0.1265 -8.947331,-0.2664 -0.33615,-0.045 -0.59657,-0.7651 -0.32251,-0.9648 3.394881,-2.4736 6.576941,-5.9566 10.725471,-6.6151 1.62692,-0.2582 0.45192,3.412 -0.16571,4.9391 -0.539,1.3327 -2.04046,2.0256 -3.06069,3.0384 -3.04576,1.0405 -5.99564,2.4219 -9.137261,3.1216 -0.34683,0.077 -0.27047,-0.7333 -0.1269,-1.0584 1.99359,-4.516 3.764721,-9.1928 6.474041,-13.3194 0.44396,-0.6762 3.13276,-0.5981 2.41664,-0.2219 -8.559911,4.497 -1.79542,-2.7344 -8.496291,6.5093 0.14139,0.4866 0.74325,1.066 0.42435,1.4598 -0.27904,0.3446 -0.8396,-0.7285 -0.68113,-1.1427 1.1559,-3.0209 2.12123,-6.3645 4.423081,-8.6369 1.66534,-1.644 4.33718,-1.8599 6.63867,-2.2832 0.90627,-0.1667 3.44033,0.01 2.70619,0.5643 -1.61206,1.2228 -3.86803,1.1894 -5.80204,1.7841 -0.92545,2.9841 -1.01231,6.3736 -2.77636,8.9523 -0.59696,0.8726 -1.47268,-1.7907 -1.40118,-2.8456 0.21183,-3.1258 0.30306,-6.6512 2.21308,-9.1345 1.44196,-1.8748 4.54311,-1.3847 6.67129,-2.4167 2.50088,-1.2126 -0.54593,-2.2283 2.63213,-0.467 -0.72282,3.0003 -1.50279,5.9875 -2.16846,9.001 -0.0949,0.4298 -0.0743,1.7544 -0.11043,1.3158 -0.2422,-2.9389 -1.58148,-6.0849 -0.50901,-8.8318 1.85551,-4.7525 5.43496,-4.0727 8.7612,-5.5544 0.405,-0.1804 0.68571,-0.5622 1.02857,-0.8433 2.40868,-0.3069 8.1117,-3.18145 7.22603,-0.9205 -1.72463,4.4026 -6.00499,8.23 -10.57083,9.4589 -2.17762,0.5862 -0.0654,-4.563 0.49585,-6.7471 1.02593,-3.99235 4.10889,-8.54845 8.46761,-9.59235 2.88306,-0.6904 5.91543,0.4035 8.87312,0.6053 4.62395,-2.9011 7.91145,14.14755 3.46208,13.20065 -33.05911,-7.0358 -11.62083,-9.65925 -8.21903,-12.23205 0.46316,-0.3503 0.31784,-1.1539 0.6902,-1.5995 0.52211,-0.6249 1.27622,-1.0116 1.91435,-1.5174 8.93443,19.72895 15.14177,-0.8632 11.71354,-2.9795 -2.07155,-1.2788 -4.85639,-0.3954 -7.29057,-0.4338 -0.17051,0 -0.48352,0.4638 -0.4052,0.3123 1.86852,-3.61365 1.46551,-2.56437 1.10655,-0.5859 5.31212,-0.023 10.62422,-0.046 15.93634,-0.068 0.0169,0.4818 0.50592,1.6047 0.0508,1.4455 -2.90465,-1.016 -5.23301,-3.38728 -8.17562,-4.28742 -0.76665,-0.23452 -1.72337,1.83592 -2.1187,1.1384 -1.34683,-2.37622 2.8661,-6.79201 3.63872,-7.83797 3.30134,0.38103 6.90674,-0.29234 9.904,1.14308 1.58048,0.75689 1.35382,3.25665 2.32654,4.71426 0.38775,0.58104 2.35453,1.14656 1.66697,1.26998 -3.12781,0.56152 -21.25528,6.65627 -15.69308,-5.38172 1.06692,-2.30912 3.80604,-3.37574 5.70907,-5.0636 6.45051,-5.93174 21.96144,8.80058 10.99824,13.85489 -11.37747,5.2453 -12.59976,-2.99594 -11.03625,-10.90784 0.37522,-1.89868 2.42091,-3.02032 3.63136,-4.53047 1.44578,-0.24122 4.15428,-2.17795 4.33734,-0.72366 0.27415,2.17793 -3.18812,3.29276 -3.74674,5.41561 -0.48105,1.82809 0.78306,3.71822 0.84604,5.60749 0.0121,0.35649 -0.82407,1.16425 -0.63032,0.86477 8.72632,-13.48749 13.93309,-14.76407 8.47092,-13.35268 -1.47937,-0.0628 -2.99337,-0.51295 -4.43811,-0.18858 -0.57066,0.1281 -0.98823,0.83421 -1.03444,1.41726 -0.18365,2.31732 0.56575,4.64757 0.37023,6.96392 -0.0313,0.37066 -0.99371,0.86746 -0.99989,0.49554 -0.18939,-11.38844 -0.90636,-8.71115 5.36134,-14.99012 16.15904,11.11421 3.55329,1.00159 0.71748,3.71126 -2.17918,2.08226 -0.73994,6.15326 -2.26216,8.75469 -0.47223,0.80702 -2.47709,0.77836 -2.80336,-0.0979 -0.88394,-2.37405 -1.76129,-5.72012 -0.0627,-7.59951 2.73427,-3.02532 7.50526,-3.19157 11.25789,-4.78735 0.54612,-0.11481 2.14756,-0.11632 1.63833,-0.34455 -8.29338,-3.71806 -3.39446,3.49704 -9.2203,9.93819 -0.99508,1.10016 -1.04872,-2.88233 -0.90003,-4.35828 0.22404,-2.22398 -0.14291,-5.71895 1.98434,-6.40541 4.4762,-1.44443 9.37122,0.81935 14.05683,1.22901 -0.24357,9.25023 1.77575,7.48444 -4.39088,12.78973 -0.92212,0.79331 -1.88688,1.63175 -3.04018,2.01843 -0.64822,0.21733 -2.00773,0.36363 -2.02596,-0.31982 -0.10288,-3.85667 1.70073,-7.58879 1.71197,-11.44682 0.002,-0.56622 -1.11956,0.17022 -1.67934,0.25533 1.44948,3.15035 4.09938,5.9922 4.34844,9.45105 0.0338,0.47066 -5.7457,4.86987 -6.32546,5.39806 -0.27273,0.24848 0.87522,-0.19594 0.95724,-0.55566 0.3874,-1.69943 1.52164,-3.91848 0.35866,-5.21678 -2.34906,-2.62235 -6.25347,-3.23623 -9.38021,-4.85435 -0.81656,3.57497 -3.36445,7.17379 -2.44971,10.7249 0.5746,2.23063 4.48573,1.6348 6.06534,3.31134 0.4906,0.5207 -0.97693,1.1044 -1.63029,1.3958 -0.20226,0.09 0.0566,-0.4531 -0.009,-0.6644 -0.83621,-2.66263 -0.53683,-6.15226 -2.68906,-7.92904 -1.6709,-1.3794 -4.32712,0.23382 -6.49068,0.35073 2.44335,3.63565 5.47611,6.93821 7.33004,10.90691 0.51362,1.0995 0.006,2.5219 -0.5542,3.5983 -0.1982,0.3808 -1.01666,0.2714 -1.28622,-0.063 -0.51471,-0.6378 -0.1579,-1.7273 -0.67283,-2.365 -8.33949,-10.32736 -6.64639,-11.87793 -9.35039,-5.87492 0.30215,2.64932 -0.66646,5.79472 0.90644,7.94792 1.41484,1.9368 4.38721,2.0537 6.74007,2.5195 0.43347,0.086 -0.22765,-1.6716 -0.39885,-1.2642 -0.24612,0.5855 0.76596,1.9239 0.13127,1.9009 -15.77934,-0.5717 -11.11656,-6.444 -14.76764,-1.2909 3.03885,1.3044 5.94465,2.9777 9.11653,3.91335 0.72931,0.2151 1.45929,-0.4402 2.20797,-0.573 0.16479,-0.0291 0.57978,0.237 0.49327,0.094 -1.18069,-1.95535 -1.65681,-5.04985 -3.85682,-5.66405 -3.13893,-0.8765 -6.58608,0.6427 -9.58857,1.9099 -0.7277,0.3072 -0.2994,1.5511 -0.44909,2.3266 3.73165,1.85995 7.4633,3.71975 11.19496,5.57955 0.0184,-0.4908 -0.34593,-1.1894 0.0555,-1.4726 0.37107,-0.2618 0.47861,1.0976 0.10665,1.3582 -1.32283,0.9269 -2.91265,1.8519 -4.52377,1.7368 -8.7843,-0.6275 -8.27744,-0.5037 -11.46332,-4.0015 4.02002,-0.5795 17.65149,-7.68025 16.02218,2.0829 -0.16223,0.9721 -1.45172,1.3648 -1.97578,2.1995 -1.1322,1.8032 -1.33536,5.1778 -4.22451,5.6697 -3.13121,0.5331 -6.34416,-0.3259 -9.51624,-0.4889 -3.82768,-6.1365 -9.72694,-11.56375 9.28714,-10.4685 7.42646,0.4277 0.78668,13.4084 0.53754,13.6954 -4.20915,4.8487 -10.83962,3.3416 -16.09348,3.2507 -3.19405,-7.9616 -7.1586,-11.416 8.39211,-15.1119 1.92136,-0.4566 2.72889,2.9413 3.57054,4.7279 1.09552,2.3254 2.89512,4.948 2.14617,7.4071 -2.20722,7.2472 -6.27127,7.2386 -11.54931,8.4987 0.48335,-0.8364 1.27278,-1.5596 1.45004,-2.5092 0.64457,-3.453 0.18629,-7.07 0.97694,-10.4925 0.57093,-2.4715 4.82933,-3.9121 2.48094,1.7201 -8.01446,19.221 -5.60724,5.1819 -6.62501,11.6387 1.47072,3.5761 2.06869,6.4364 3.95951,-5.368 0.16261,-1.0152 -1.06079,-1.7693 -1.46208,-2.7159 -0.39156,-0.9236 -0.6003,-3.8254 -0.90598,-2.8699 -4.82435,15.0798 1.85385,11.6211 -3.66538,14.174 0.10499,-0.7511 -0.25746,-1.7557 0.31488,-2.2532 0.77344,-0.6723 2.84723,0.3768 3.00805,-0.6353 0.18734,-1.179 -1.30645,-2.6038 -2.49956,-2.5647 -3.59246,0.1177 -9.38809,-0.4741 -10.36148,2.986 7.82756,7.1378 5.83947,9.8533 8.0936,6.0361 0.18956,-0.4507 0.57739,-0.8632 0.56867,-1.3521 -0.0722,-4.047 -3.78446,-8.0982 -9.67336,-4.4168 -9.25117,5.7831 3.56446,10.6701 5.37569,10.6746 1.53992,0 2.47456,-1.8336 3.71183,-2.7504 -0.0121,-1.3488 0.0311,-5.8182 -0.62803,-6.2007 -1.79431,-1.0413 -4.14167,0.262 -6.21541,0.3196 -0.76913,0.021 -2.07625,-0.8173 -2.30679,-0.083 -0.37914,1.2074 0.0264,3.1325 1.20199,3.6012 4.04776,1.6139 8.60985,1.3517 12.91476,2.0276 0.45394,-1.3668 2.15021,-4.6138 -0.50322,-5.6936 -1.75844,-0.7155 -3.78883,0.3231 -5.6872,0.3055 -0.61221,-0.01 -1.41977,-0.8562 -1.79805,-0.3748 -0.3671,0.4671 0.27701,1.5216 0.87018,1.5556 3.9821,0.2281 7.95841,-0.5479 11.93762,-0.8219 -0.58211,-1.021 -0.72138,-2.4879 -1.74634,-3.063 -1.55131,-0.8705 -3.48641,-0.9034 -5.26498,-0.8713 -0.32248,0.01 0.18771,0.6659 0.0675,0.9653 -0.7394,1.8422 -2.14681,3.4239 -2.60448,5.3555 -0.19204,0.8105 0.44855,3.144 0.77247,2.3766 1.41723,-3.3577 1.79784,-7.0639 2.69677,-10.5958 19.20709,0.7625 5.83193,-0.2986 4.28248,0.9079 -1.60184,1.2473 -3.28329,2.9533 -3.52122,4.9695 -0.23667,2.0056 1.12534,7.2789 2.27201,5.6165 8.81264,-12.7765 -2.87106,-13.6659 5.39897,-12.3815 -0.6897,0.4606 -1.57523,0.7155 -2.06912,1.3817 -1.00342,1.3537 -2.17967,2.8233 -2.29414,4.5044 -0.0734,1.0785 0.99825,3.4158 1.80389,2.695 4.22154,-3.7767 6.03167,-9.7902 10.29528,-13.5193 0.85654,-0.7492 3.37211,1.6326 2.48301,2.3428 -2.0965,1.6747 -5.21183,1.279 -7.81774,1.9185 -0.61017,1.2879 -1.67755,2.4468 -1.83052,3.8637 -0.0947,0.8767 0.45329,2.9112 1.15651,2.3792 3.80381,-2.8779 7.84628,-6.147 9.65644,-10.56 0.62325,-1.5194 -3.55905,-0.5313 -4.57891,-1.8185 -0.54504,-0.6879 1.63415,-0.7664 2.51151,-0.7909 0.71572,-0.02 -1.33511,0.5178 -2.00266,0.7767 1.89542,6.3339 1.484,12.3662 13.01713,6.5002 1.69903,-0.8641 1.0966,-4.2178 -0.0795,-5.7179 -1.54151,-1.9662 -4.60063,-1.9597 -6.82769,-3.0921 -2.05682,-1.0458 -0.59093,-1.2859 -1.98605,-0.8782 4.20312,0.8832 8.4901,1.434 12.60938,2.6497 0.82541,0.2436 1.13384,1.5025 1.98061,1.6562 0.41867,0.076 0.62457,-1.0215 0.26487,-1.2488 -4.46234,-2.8199 -12.11596,-3.3255 -10.35494,-7.5957 0.28261,-0.6853 1.25608,-0.7876 1.88411,-1.1814 3.18801,3.3714 5.66286,7.6021 9.56404,10.1141 1.05451,0.679 3.11553,-0.6002 3.28005,-1.8435 0.66924,-5.0579 -2.10728,-8.5518 -5.88666,-10.8994 -0.46836,-0.291 -1.22642,-0.434 -1.65197,-0.083 -0.99336,0.8183 -1.42953,2.1406 -2.14429,3.2109 1.06711,8.6815 -0.68568,9.8573 14.64365,3.5664 1.08878,-0.4468 0.48953,-2.7834 -0.44179,-3.5029 -2.6023,-2.0106 -6.1626,-2.3397 -9.08131,-3.8548 -0.23986,-0.1245 -0.11254,-0.6462 0.10711,-0.8036 0.53703,-0.3849 1.2547,-0.4146 1.88205,-0.6219 -0.27326,-0.24845 -0.83702,-1.11395 -0.81975,-0.74515 0.16865,3.60245 -0.78981,7.79435 1.28777,10.74215 1.08564,1.5403 5.46126,0.8549 5.55943,-1.027 0.20803,-3.9887 -3.62544,-7.1454 -4.93639,-10.91835 -0.15989,-0.4601 1.15721,1.0268 1.34283,0.5764 0.36044,-0.8745 -0.28265,-1.8705 -0.42397,-2.8058 0.60509,4.19765 -0.97914,9.40265 1.81526,12.59275 1.6082,1.836 5.51385,-0.6997 6.76844,-2.7933 1.67295,-2.7917 2.65684,-7.10585 0.73966,-9.73595 -11.80531,-16.19516 -6.59508,-0.6808 -8.58601,0.6454 -0.8522,0.5677 -1.89944,0.7657 -2.84917,1.1485 6.86922,4.29115 1.35961,1.9011 15.80541,-3.9192 0.24802,-0.1 -0.26701,0.6316 -0.53252,0.5999 -2.44321,-0.2913 -4.90926,-2.3633 -7.22241,-1.5246 -5.68783,2.0625 -1.39641,7.62095 -3.73443,4.2394 3.2987,-2.3086 6.5974,-4.6171 9.8961,-6.9257 0.87993,0.6327 3.65596,1.5212 2.63979,1.8979 -13.85207,-1.4034 -1.91456,-1.557 -7.8767,0.6704 -0.29779,0.1113 -0.78271,-0.5719 -0.91133,-0.2812 -0.20735,0.4687 0.25077,0.9939 0.37615,1.4909 4.67782,-1.6616 9.35563,-3.3232 14.03343,-4.9848 -0.38993,-0.2652 -0.70566,-0.8787 -1.16979,-0.7955 -3.00865,0.54 -5.87107,1.7047 -8.79845,2.5844 -0.67074,0.2016 -1.29463,0.6635 -1.99499,0.6593 -0.39779,0 -1.37906,-0.6422 -0.98279,-0.6769 5.59096,-0.4895 11.21471,-0.4733 16.82207,-0.7099 -4.36399,1.0423 1.74679,6.1394 -0.41171,7.1899 -4.40803,2.1453 -9.56842,3.12965 -14.45352,2.71885 -1.67661,-0.14095 -1.94605,-2.74745 -2.83964,-4.17305 -0.28695,-0.4579 -1.2057,-1.2908 -0.69418,-1.4648 4.53211,-1.5417 9.35279,-2.0475 14.02918,-3.0713 -0.0639,1.4611 -0.42771,2.94 -0.19173,4.3834 0.51006,3.1198 5.96436,7.04175 -2.90502,8.99055 -3.74846,0.8237 -7.70398,-0.8953 -11.2882,-2.2674 -0.59926,-0.2294 -0.0831,-2.0224 0.5348,-1.8492 2.53375,0.7098 4.56832,2.6125 6.85247,3.9188 1.71025,-1.9008 3.11243,-4.1325 5.13073,-5.70245 0.72959,-0.5675 -0.86888,1.65375 -1.08183,2.55315 -0.16365,0.6912 -0.24056,1.4531 -0.0272,2.1306 0.11752,0.3731 1.31551,0.689 0.92564,0.7215 -16.34202,1.3653 -18.33972,-4.23985 -14.13438,3.3606 20.47541,-1.5372 6.65456,-2.9452 11.38526,-10e-4 0.47791,0.2974 1.64464,0.1938 1.51693,0.7421 -0.17898,0.7683 -1.22894,1.0706 -1.98869,1.2831 -19.27545,5.3898 -7.17052,0.7265 -13.72641,3.3097 3.90469,-1.0438 7.80938,-2.0876 11.71408,-3.1314 0.29894,-0.2556 0.52224,-0.8867 0.89684,-0.7668 0.72034,0.2306 1.79871,0.8385 1.63216,1.5763 -0.62021,2.7473 -1.17653,6.3493 -3.70257,7.5951 -3.33966,1.647 -7.46018,0.081 -11.1681,-0.2613 -0.44772,-0.041 0.78332,-0.4417 1.17498,-0.6626 2.28142,-0.1054 4.65928,0.3486 6.84422,-0.3162 1.16403,-0.3542 1.81242,-1.6339 2.60352,-2.5584 0.13067,-0.1527 0.0506,-0.7914 0.0955,-0.5955 0.46291,2.0212 2.09637,4.2561 1.16753,6.1098 -3.57446,7.1337 -7.83093,5.0678 -13.36425,4.3875 2.89975,-3.4026 4.77617,-8.064 8.69924,-10.2076 1.40182,-0.766 2.19678,2.517 2.5076,4.0839 0.43511,2.1935 1.24021,5.1456 -0.36875,6.6987 -2.07035,1.9984 -10.17911,6.1624 -14.23104,3.0891 -0.90913,-0.6896 -1.25021,-1.9092 -1.87531,-2.8638 -5.78822,-9.2143 13.11002,-10.4039 14.64547,-5.429 1.19866,3.8836 -2.5376,10.5279 -5.58497,12.2529 -4.84548,2.743 -6.1432,0.4968 -8.68342,-1.9159 3.74597,-2.2756 6.97359,-5.8137 11.23793,-6.8267 1.36103,-0.3233 2.24339,2.295 2.02371,3.6765 -0.44877,2.8224 -1.45048,6.0858 -3.82811,7.6715 -2.179,1.4532 -5.24205,0.2785 -7.85642,0.121 -1.15719,-0.07 -4.3315,-0.129 -3.38497,-0.7984 3.52447,-2.4923 7.90791,-3.464 11.86186,-5.1961 -3.76579,2.8558 1.24419,-0.2392 -2.26177,-2.5303 -2.02069,-1.3206 -4.73374,-0.9514 -7.08734,-1.4877 -0.12161,-0.028 0.29403,0.055 0.37187,-0.043 0.34304,-0.4297 0.26036,-1.4645 0.80951,-1.4372 3.58622,0.1782 7.056,1.3355 10.584,2.0033 0.85324,0.8716 2.93741,1.4549 2.55972,2.6147 -0.33487,1.0282 -2.07242,-0.6352 -3.06351,-1.0679 -1.94878,-0.8507 -3.69761,-2.1957 -5.74306,-2.7768 -2.34338,-0.6657 -2.87369,1.3057 -1.98936,0.1384 0.48465,-0.6397 0.94422,-1.298 1.41633,-1.947 -3.48117,22.6349 15.67852,5.7662 12.90915,2.3787 -1.82815,-2.2362 -5.52225,-1.9347 -7.88161,-3.601 -0.78129,-0.5518 -2.48967,-0.6911 -2.35593,-1.6382 0.12463,-0.8822 1.76209,-0.2639 2.64315,-0.3958 5.00443,1.3938 9.90571,5.13 15.01329,4.1815 2.34256,-0.4351 -1.20584,-5.1431 -3.25075,-6.366 -2.12018,-1.2678 -5.0568,0.7388 -7.41101,-0.01 -0.74857,-0.238 0.66264,-1.5989 1.38561,-1.906 0.57515,-0.2444 1.16518,0.5619 1.79006,0.5569 3.7566,-0.03 7.5005,-0.4406 11.25075,-0.6609 -4.00065,3.0085 -7.04036,9.6884 -12.00195,9.0256 4.3661,-26.14205 -2.01571,-6.9703 3.31253,-10.888 0.6854,-0.5039 0.84634,-1.8129 1.69135,-1.9113 11.24935,-1.3088 9.39633,-1.7745 13.45681,4.4607 -1.53962,7.5647 -0.22449,9.7319 -14.0302,3.9383 -4.28048,-1.7964 0.87163,-8.3769 1.98892,-8.9139 3.41453,-1.6414 7.26903,-2.8451 11.0525,-2.6494 1.63099,0.084 2.34971,2.2689 3.52457,3.4033 1.3136,5.9811 2.10326,6.0858 -12.68863,5.9168 -1.46894,-0.017 0.19305,-6.2793 0.25056,-6.7681 0.0746,-0.6348 0.15815,-2.5297 -0.0246,-1.9173 -0.30982,1.0383 -0.2447,2.1532 -0.36705,3.2298 32.85286,-1.5635 10.75671,-5.5121 7.74813,-4.9387 -1.1212,0.2138 -1.73658,1.5401 -2.78398,1.9936 -0.3528,0.1528 -1.0151,-0.6786 -1.11187,-0.3065 -0.23146,0.8899 -0.0885,3.434 0.48529,2.7155 1.876,-2.349 2.57117,-5.4349 3.85675,-8.1523 -0.0121,-0.5563 4.29456,-0.3728 3.56983,0.5913 -1.24185,1.6521 -3.72248,1.9194 -5.22413,3.3394 -0.36852,0.3485 0.25446,1.0406 0.0864,1.5191 -0.0884,0.2516 -0.44082,-0.4514 -0.37098,-0.7087 0.62758,-2.3125 1.60135,-4.5167 2.40202,-6.7751 3.06068,-0.4928 6.12136,-0.98575 9.18204,-1.47865 0.76176,0.379 3.13325,1.06715 2.28528,1.13715 -5.21164,0.4302 -6.75904,-3.49465 -9.35578,2.7811 -1.55221,3.7513 1.41066,4.796 -0.43789,4.0557 12.64335,-9.84705 7.4403,-11.56785 14.23499,-8.22565 0.80896,0.4855 -6.05681,11.92605 -6.86578,11.44055 l 0,0 c -7.14423,-0.4346 -3.50144,0.6417 4.02098,-10.66245 0.80136,0.49385 2.10783,0.58815 2.40406,1.48155 0.96526,2.9114 0.64901,9.2278 -3.12669,10.8048 -2.22393,0.9288 -4.81815,-0.2681 -7.22742,-0.2047 -0.46911,0.012 -1.80085,0.521 -1.34049,0.4301 1.99157,-0.3935 3.96078,-0.8927 5.94118,-1.339 0.96539,-2.0838 2.09358,-4.0996 2.8962,-6.2514 0.32476,-0.8706 -1.35605,1.4555 -1.45205,2.3798 -0.13958,1.3438 1.33463,2.7377 0.79194,3.975 -6.54887,14.9307 -3.72789,6.0609 -6.45749,3.9774 -0.31008,-0.2367 -0.12629,0.7699 -0.1895,1.1548 1.21062,-2.6535 1.34904,-6.1451 3.63186,-7.9604 1.19447,-0.9499 1.06845,3.0489 0.6865,4.5265 -0.19956,0.7719 -1.54142,0.5459 -2.13529,1.0779 -1.45131,1.3002 -2.05366,3.7629 -3.91425,4.3417 -2.59423,0.807 -9.18499,1.9078 -8.12879,-0.5953 1.6767,-3.9737 7.43327,-4.3765 11.14992,-6.5647 -0.28994,1.2363 -0.31778,2.5654 -0.86979,3.709 -0.12493,0.2587 -0.42819,-0.383 -0.64435,-0.5721 -0.204,-0.1785 -0.48593,-0.2929 -0.61612,-0.5307 -0.17028,-0.3109 0.0906,-1.1591 -0.24167,-1.0357 -14.02012,5.2023 -16.24665,3.4683 -11.3454,6.3904 0.30485,3.2237 0.0654,1.7667 8.30251,-3.0101 0.60252,-0.3494 0.58382,-1.2687 0.79398,-1.9328 0.0944,-0.2984 0.42439,-0.961 0.1127,-0.9321 -4.32,0.4002 -9.0175,0.065 -12.8431,2.1114 -1.8286,0.9782 -1.38098,3.9109 -2.07147,5.8664 5.68031,0.8017 4.5893,0.8185 13.53143,0.053 0.40629,-0.035 -0.76704,-0.6303 -1.13541,-0.4554 -1.17042,0.5556 -2.58571,3.65 -3.03094,2.4333 -3.44766,-9.4218 12.36071,-18.2119 -11.27054,2.1519 3.2704,-0.4867 6.50612,-1.5531 9.81124,-1.46 0.6716,0.019 -0.72847,1.1295 -1.07309,1.7062 -0.46585,0.7797 -0.48153,2.1237 -1.35789,2.3623 -3.34198,0.91 -6.99837,1.6705 -10.35793,0.8278 -2.31153,-0.5798 -7.42971,-3.6333 -5.3315,-4.7633 4.04567,-2.1787 9.189,0.1411 13.7835,0.2116 -0.24155,0.9766 -0.28602,2.0243 -0.72465,2.9296 -1.75814,3.6286 -3.73484,7.7171 -8.81639,7.2787 -3.14475,-0.2714 -6.39548,-1.3414 -8.88004,-3.2882 -1.46811,-1.1504 -3.84688,-5.0513 -1.99031,-5.2293 4.39068,-0.4211 8.36159,2.8115 12.54237,4.2173 -2.62081,-3.4394 2.05955,2.4663 0.87648,4.0227 -1.3759,1.81 -4.38489,1.4514 -6.65835,1.4803 -2.08452,0.027 -9.80059,0.1873 -10.43395,-4.2846 -0.0905,-0.6392 1.27838,0.1806 1.91756,0.2709 2.69424,0.6039 5.4563,0.9601 8.08272,1.8119 0.97756,0.3171 0.3885,2.8811 -2.1356,3.1297 -3.5811,0.3528 -7.40216,0.4268 -10.76053,-0.8655 -8.16244,-3.1408 -4.67949,-4.6613 -2.11498,-6.645 3.08359,-1.8098 6.50539,-3.1387 9.25079,-5.4293 0.55442,-0.4626 0.55853,-2.0417 -0.15365,-2.1607 -1.97758,-0.3305 -4.48806,-0.271 -5.90445,1.1481 -1.5703,1.5734 -1.35225,4.2547 -1.68206,6.453 -0.0683,0.4547 0.18997,1.5941 0.52243,1.2765 3.40178,-3.2491 6.18416,-7.0902 9.27623,-10.6354 -0.90821,-1.4728 -2.14984,-4.4728 -5.12509,-1.0548 -1.26635,1.4548 -0.62941,3.8097 -1.09103,5.6824 -1.5631,6.3411 -5.42755,7.1875 8.62557,-6.6186 -0.20921,-0.7705 -0.15593,-1.6674 -0.62764,-2.3116 -0.17252,-0.2356 -0.35538,0.4749 -0.59245,0.6454 -2.06936,1.4886 -4.87894,2.2108 -6.31031,4.3201 -0.67824,0.9995 0.71428,2.3087 1.01904,3.4775 1.28716,4.9366 -6.96486,18.1589 5.96602,-13.1933 -1.43201,0.1444 -3.42724,-0.7142 -4.29605,0.4333 -1.17486,1.5518 -0.26863,3.8837 -0.4403,5.8224 -0.0913,1.0312 0.46204,3.7301 -0.34848,3.0861 -2.17567,-1.7287 -1.94661,-12.0081 -1.17285,-12.6451 2.78433,-2.2924 7.1765,-0.7265 10.76474,-1.0897 11.78486,0.3602 -3.60752,-0.3081 -5.6263,1.1954 -2.20135,1.6395 -1.05984,5.4259 -2.12567,7.9553 -0.34388,0.8161 -0.0186,-1.7735 -0.10786,-2.6546 -0.17257,-1.7029 -1.99352,-3.9963 -0.67696,-5.0901 3.5781,-2.9727 8.65233,-3.42 12.97849,-5.1299 0.30227,0.6182 1.48565,1.4825 0.9068,1.8548 -3.86572,2.4856 -8.36742,3.8053 -12.57721,5.6492 -0.20031,0.088 -0.5938,0.354 -0.64086,0.1404 -0.31277,-1.4193 -0.53688,-2.9189 -0.2869,-4.3506 0.3337,-1.911 0.31586,-4.5038 2.00085,-5.4652 3.59885,-2.05355 8.10212,-1.74065 12.15318,-2.61105 1.0285,1.0313 4.33994,2.35375 3.08549,3.09375 -3.92962,2.318 -8.82563,2.4761 -13.36142,2.968 -0.57824,0.063 -0.92136,-0.8363 -1.03157,-1.4074 -0.13506,-0.6998 0.21469,-1.4098 0.35301,-2.109 0.7799,-3.94265 1.96902,-4.18135 5.07287,-9.43505 3.03678,0.7952 6.12142,1.4262 9.11038,2.3857 0.23815,0.076 0.61442,0.6465 0.36447,0.6559 -3.1105,0.1171 -6.39115,-1.3362 -9.3327,-0.3182 -1.62838,0.5635 -1.41679,3.2235 -2.62183,4.4552 -0.70768,0.7233 -0.0798,-4.082 0.56838,-2.9822 4.48824,-1.912 8.88358,-4.0588 13.46471,-5.7361 0.63819,-0.2336 1.43701,0.3775 2.03797,0.06 0.31607,-0.1669 -0.47419,-0.8599 -0.80031,-0.7136 -3.90687,1.7528 -7.42571,4.2828 -11.2859,6.1362 -0.49871,0.2394 -1.49523,0.6072 -1.65779,0.078 -0.36364,-1.1829 0.36889,-2.4474 0.55334,-3.6711 5.05331,-1.2816 10.10664,-2.5631 15.15997,-3.8446 -0.55147,0.6134 -1.7622,1.0223 -1.65443,1.8401 0.27791,2.109 3.99598,4.144 2.66126,5.8004 -2.84497,3.5307 -7.80126,4.9036 -12.19353,6.02935 -1.32903,0.3407 -4.46405,-0.9062 -3.6089,-1.97915 2.97683,-3.7348 7.82453,-5.4788 11.7368,-8.2182 0.15031,1.0321 0.46105,2.0535 0.45088,3.0965 -0.0165,1.6909 -1.89679,6.68515 -2.6704,7.08965 -3.05311,1.5964 -6.85475,0.8874 -10.17969,1.7901 -0.30533,0.083 0.0773,0.628 0.11602,0.9421 2.5662,-2.9722 5.13241,-5.94435 7.69863,-8.91655 2.79392,2.9435 5.92418,5.30735 -2.22265,10.60095 -2.84739,1.8502 -6.88258,0.7285 -10.18691,-0.054 -0.94488,-0.2237 -1.97298,-2.0362 -1.21756,-2.6463 12.33844,-9.96485 11.49956,-10.11935 12.66409,-3.77915 -1.78217,3.60655 -6.72515,16.16775 -14.15571,9.74645 -2.80076,-2.4204 -2.66614,-7.7334 -1.03562,-11.05675 1.86678,-3.8047 20.12668,-4.7072 9.41137,8.54855 0.16647,0.028 0.53291,-0.08 0.49942,0.085 -0.21776,1.0765 -0.27283,3.7623 -1.14189,3.0908 -3.7316,-2.8837 -8.14105,-6.2839 -8.99259,-10.92235 -0.41373,-2.2538 5.28629,-2.826 6.78662,-1.0941 2.70838,3.12655 2.12619,8.01185 2.74857,12.10115 0.0582,0.3826 -0.51693,0.576 -0.77539,0.864 -0.68376,-0.1163 -1.38629,-0.5463 -2.05128,-0.3492 -6.76587,2.0057 -1.13714,7.8475 -14.33268,-0.6964 -1.38709,-0.8982 -1.88818,-4.0076 -0.51737,-4.9304 10.31595,-6.94415 10.6855,-3.1664 14.93364,2.7543 -0.9878,1.9474 -1.6688,4.0837 -2.96341,5.8421 -3.32429,4.5151 -9.17011,8.1075 -15.15271,2.2913 -2.31243,-2.2481 -1.51495,-6.4792 -0.85967,-9.6371 1.04675,-5.0441 18.64003,-9.62925 14.52042,5.2925 -1.07625,1.9773 -3.90717,7.5804 -5.63329,7.8831 -4.30367,0.7546 -8.91596,-0.3882 -12.94032,-2.0898 -1.367,-0.5781 -1.39901,-2.6585 -1.71726,-4.1081 -0.23551,-1.0728 -1.00421,-3.2319 0.0923,-3.2937 5.42568,-0.3055 10.75207,1.5868 16.12811,2.3802 -0.94813,1.5575 -2.10693,3.0048 -2.84439,4.6723 -1.208,2.7317 -0.13444,7.4937 -2.9617,8.4568 -4.54158,1.5472 -10.20553,0.1019 -14.1519,-2.6268 -2.45798,-1.6996 -4.35884,-6.6092 -2.21197,-8.6879 3.11642,-3.0175 8.83976,-3.1769 12.90647,-1.6672 2.81486,1.045 2.76344,5.3316 4.14517,7.9973 -1.33568,1.8569 -2.32268,4.0232 -4.00708,5.5708 -1.93324,1.7761 -13.62283,4.988 -13.84064,2.743 -0.46671,-4.8104 4.87909,-8.6145 8.65228,-11.6347 2.67636,-2.1423 2.70984,15.5548 1.94776,10.0983 -3.47138,1.9215 -6.63012,4.5713 -10.41417,5.7645 -0.89831,0.2833 -2.29421,-0.8563 -2.18494,-1.7918 0.45167,-3.8673 1.23616,-8.0588 3.68862,-11.0829 0.87672,-1.0811 2.23814,1.8461 2.75371,3.139 3.28136,8.2284 1.82134,6.8103 -3.9629,11.6962 -4.7545,1.1728 -14.11994,4.4075 -2.71257,-12.9186 1.50261,-2.2822 4.70498,4.1884 4.417,6.9056 -0.98039,9.2511 -7.87543,3.1923 -11.66873,6.7977 -1.00372,0.954 2.75403,0.2927 4.13105,0.4391 0.30491,-3.5856 -0.50262,-7.4491 0.91473,-10.7566 0.55332,-1.2912 2.27422,2.2334 2.13842,3.6316 -0.27049,2.7849 -1.94044,5.266 -3.24313,7.7423 -0.49374,0.9385 -1.03076,2.4102 -2.09121,2.3977 -3.23996,-0.038 -9.00467,-3.2354 -12.12771,-4.8151 4.1516,-0.5233 8.31096,-2.1516 12.45475,-1.5699 1.0922,0.1533 0.64596,2.4725 -0.0742,3.3078 -1.10937,1.2868 -2.9552,1.8276 -4.62474,2.1426 -3.11656,0.5878 -6.47478,1.4732 -9.50023,0.5218 -4.69508,-1.4765 -3.99142,-6.8331 -4.20688,-10.1384 4.79591,0.046 9.86047,-1.4447 14.38776,0.1386 1.46272,0.5115 -0.60938,3.0416 -1.02697,4.5339 -0.5049,1.8042 -0.0755,4.4807 -1.73767,5.3452 -4.44908,2.3142 -14.95761,2.6763 -18.02919,-3.3046 -1.04401,-2.0328 0.85323,-4.4902 1.27985,-6.7352 1.73117,-1.688 2.86656,-4.407 5.19353,-5.064 0.56644,-0.1599 20.57685,-0.2094 9.67362,10.402 -8.47104,8.2443 -21.35893,-5.111 -12.1673,-10.737 1.40124,-0.9986 17.64307,-14.4619 15.88724,1.8983 -0.48197,4.4906 -8.08763,4.598 -12.58414,5.0231 -1.71747,0.1623 -3.69903,-1.7513 -3.8391,-3.4707 -0.15584,-1.913 2.15432,-3.1785 3.16449,-4.8105 1.05212,-1.6997 2.0134,-3.4541 3.02008,-5.1811 5.50764,-2.1635 5.57015,-3.1366 3.11309,10.6383 -0.19097,1.0706 -1.46197,-1.6119 -2.14873,-2.4553 -1.0203,-1.2529 -2.93454,-2.2154 -2.97028,-3.8309 -0.23543,-10.6393 0.87748,-9.4009 7.20369,-10.3801 2.51906,-0.2746 6.86413,-3.2613 7.55714,-0.8239 1.24253,4.37 -2.43883,8.7694 -4.09517,12.9999 -0.16067,0.4104 -0.78387,0.6665 -1.20639,0.5411 -5.88473,-1.7464 -6.73796,-5.8085 -5.33326,-13.0491 0.32625,-1.6817 2.81071,-1.9592 4.21606,-2.9387 1.1816,0.6041 3.0032,0.6008 3.5448,1.8124 0.51426,1.1504 -1.14114,2.3505 -1.12061,3.6105 0.0279,1.7162 0.96164,3.3025 1.26084,4.9927 0.0544,0.3075 -0.42502,1.1434 -0.21569,0.9117 2.62152,-2.902 6.37065,-5.265 7.52404,-9.0018 0.56552,-1.8321 -2.19258,-3.1462 -3.28887,-4.7193 -1.08898,0.4158 -2.18952,0.8025 -3.26695,1.2473 -0.1894,0.078 -0.62492,0.1395 -0.52564,0.3188 0.54971,0.9926 1.57207,1.6605 2.15944,2.6313 0.55208,0.9125 0.19067,3.2298 1.22172,2.9571 15.55043,-4.1131 12.95201,-4.1635 8.56,-12.39775 -2.80204,0.4916 -5.65183,0.7628 -8.40609,1.47495 -0.4332,0.1119 -1.2229,0.5877 -0.95337,0.9449 0.54824,0.7264 1.60776,0.9132 2.49809,1.102 0.5925,0.1255 -2.13424,-0.6743 -1.5748,-0.9063 4.82666,-2.00225 12.43202,17.0216 15.3187,-3.32935 -7.96095,2.56145 13.54498,-3.9847 -12.08232,-2.1592 -1.25152,0.089 -0.9347,2.3429 -1.18764,3.5719 -0.14321,0.69565 0.57955,-1.297 0.85423,-1.9519 0.78839,-1.88 0.32108,-5.3354 2.33484,-5.6525 4.36014,-0.6865 8.55528,2.1761 12.83293,3.2642 1.53905,5.75185 4.51696,11.15485 -10.41367,9.31155 -2.51451,-0.3105 -2.5239,-4.4268 -3.35576,-6.81995 -1.07253,-3.0856 -0.31575,-9.1266 4.11856,-9.8581 4.06813,-0.671 7.96186,2.1469 11.94278,3.2204 1.85373,7.083 3.07006,7.181 -13.46589,5.417 -1.2144,-0.1294 0.82605,-2.2987 1.22951,-3.4514 0.8603,-2.4579 0.38196,-5.9556 2.56176,-7.38039 11.05441,-7.22533 12.49719,2.15939 16.62724,9.02879 -1.8042,0.5974 -3.577,2.2846 -5.41258,1.792 -2.97161,-0.7974 -14.97951,-4.5138 -11.68022,-11.46339 0.90483,-1.90594 3.02539,-2.97917 4.78525,-4.14289 1.32813,-0.87825 3.05829,-2.80895 4.376,-1.91514 4.33084,2.93763 6.85736,7.90699 10.28605,11.86052 -3.17812,0.7725 -6.57652,3.7134 -9.53437,2.3175 -3.1962,-1.5083 -4.36153,-5.8162 -5.17004,-9.25671 -2.08764,-8.88364 12.40623,-17.15045 19.27836,-8.64344 2.43024,3.00838 -0.44189,7.72207 -0.66284,11.5831 -3.83067,-1.29426 -8.63535,-1.02118 -11.49198,-3.88279 -1.3304,-1.33269 0.81499,-11.27741 2.53743,-12.63133 0.99194,-0.7797 2.52464,0.29334 3.72077,0.69477 0.23866,0.0801 -0.77159,0.09 -0.6816,0.32519 1.40717,3.67623 3.2773,7.15809 4.91597,10.73713 -7.70192,-2.63176 -4.76646,-0.43416 -3.81136,-15.80618 0.0326,-0.52624 0.80003,0.69056 1.23609,0.98693 0.33677,0.22887 0.99466,0.18331 1.07354,0.58277 0.11149,0.5645 -0.42801,1.06825 -0.64201,1.60237 0.6696,1.74401 1.33919,3.48801 2.00879,5.23201 3.72947,0.006 7.77837,1.52773 11.18843,0.0175 1.48408,-0.65722 -0.27453,-3.24016 -0.24694,-4.86301 0.0153,-0.89857 0.70035,-3.50761 0.37503,-2.66986 -7.33983,18.90076 1.48224,9.20814 -8.32441,10.39537 -1.03454,0.12523 -1.78148,1.08173 -2.67222,1.62259 13.31309,-8.19417 9.86786,-1.80926 5.99521,-11.10157 -0.17953,-0.43077 1.21704,0.11254 1.27628,0.57549 0.47137,3.68268 2.01095,7.88223 0.22275,11.13594 -1.57571,2.86708 -11.40289,-0.034 -4.57205,1.7445 4.75824,-3.61873 2.7735,-1.16994 0.70098,-12.19636 -0.15343,-0.81632 -0.33356,1.67154 -0.17065,2.48603 0.51408,2.57043 2.07481,4.93679 2.17912,7.55604 0.20643,5.18317 -7.25226,5.64365 -9.94371,6.59993 -1.33183,-0.43059 -4.18201,0.0955 -3.99551,-1.29177 0.63159,-4.69783 3.30409,-8.97413 5.90816,-12.93485 0.45049,-0.68519 1.90225,-0.38792 2.44997,0.22234 1.99523,2.22304 4.54312,4.68452 4.63388,7.67025 0.36987,12.16902 -3.26886,7.65052 -5.18169,5.62857 -0.33108,-0.29463 -0.93456,-0.44461 -0.99328,-0.88391 -0.36701,-2.74568 2.23492,-7.05327 -0.23525,-8.30696 -3.08018,-1.5633 -6.97551,1.28483 -9.86185,3.18238 -1.35313,0.88957 -2.80956,3.215 -1.82634,4.50173 5.04188,6.59831 6.87176,5.55971 11.48756,4.40021 0.0121,-0.6985 0.44078,-1.52744 0.0341,-2.09558 -0.48826,-0.68232 -1.45518,-1.16432 -2.28664,-1.05203 -4.42177,0.59717 -8.63755,2.26661 -13.01731,3.11891 -0.19273,0.038 -5e-5,-0.7846 0.0162,-0.5889 0.0718,0.8627 -0.71372,2.5417 0.15046,2.5928 2.84479,0.1679 5.52582,-1.3963 8.28872,-2.0945 0.0502,-0.5005 -0.10726,-1.9334 0.15061,-1.50153 2.78553,4.66383 2.55514,10.42813 -5.89218,12.17143 -3.70615,0.7648 -7.41109,-2.041 -10.58708,-4.0986 -1.16862,-0.7571 -2.89006,-3.186 -1.65774,-3.8343 4.42069,-2.3255 9.78574,-2.0102 14.67861,-3.0154 0.0412,1.4968 0.33535,6.3513 -0.30938,7.7292 -2.50247,5.34825 -6.88995,8.12325 -13.28605,7.72235 -2.56576,-0.1608 -8.72562,-1.9522 -6.79447,-3.64915 3.44324,-3.0257 9.03895,-1.5297 13.55842,-2.2946 -0.35276,2.67185 -0.80193,12.14745 -5.84877,9.48915 -4.52487,-2.3834 -7.24836,-8.46515 -12.31669,-9.14845 -3.89638,-0.5253 0.28452,12.50615 3.08781,11.38355 1.31146,-0.1303 2.80284,0.2845 3.93436,-0.3912 0.5336,-0.3187 0.3076,-1.4591 -0.17,-1.8567 -0.47858,-0.3985 -1.30578,0.4479 -1.8609,0.1656 -0.79674,-0.4051 -1.07083,-2.5674 -1.77178,-2.0127 -17.14894,13.5697 -9.24892,10.2909 -2.66274,8.5444 -0.33615,0.4604 -2.63895,4.4894 -4.26335,2.9986 -0.87591,-0.8038 -0.0106,-2.3889 -0.21536,-3.56 -0.37524,-2.1506 -1.31336,-4.1975 -1.51743,-6.3711 -0.10892,-1.1593 1.28757,2.1082 1.22637,3.2711 -0.17671,3.357 -1.27979,6.6005 -1.91968,9.9008 -1.18545,2.1435 -1.64832,4.3774 -5.56809,2.5458 -0.73527,-0.3436 0.0506,-1.6233 0.0289,-2.4346 -0.0573,-2.1495 -0.24609,-4.2951 -0.26548,-6.4453 -10e-4,-0.1181 0.21751,0.1678 0.2099,0.2857 -0.21802,3.3774 -0.58752,6.7433 -0.88128,10.1149 -2.77503,1.2576 -5.38694,2.9668 -8.32511,3.7727 -0.67502,0.1852 -2.29558,-0.4341 -1.85723,-0.9798 0.80423,-1.0011 2.93691,-0.1752 3.64542,-1.2462 1.89087,-2.8584 2.37319,-6.4306 3.55981,-9.6459 -0.30737,0.3983 -0.94061,0.6922 -0.9221,1.1949 0.0414,1.1257 0.72259,2.1339 1.08389,3.2009 -0.96843,2.1677 -1.09871,4.9626 -2.90528,6.5031 -1.95342,1.6657 -4.83136,1.8365 -7.36438,2.2541 -0.7226,0.1191 -2.208781,0.025 -2.083741,-0.6966 0.87075,-5.0253 3.019311,-9.7463 4.725981,-14.5526 0.0953,-0.2685 0.39631,0.7139 0.14231,0.843 -2.33903,1.1879 -4.899171,1.8781 -7.348751,2.8171 -0.56028,0.7302 -1.48561,1.2912 -1.68087,2.1906 -0.23493,1.0823 -0.46497,3.843 0.4921,3.2858 4.14668,-2.4143 7.150271,-6.4044 10.597321,-9.7423 0.26669,-0.2583 0.86462,-1.0214 0.4941,-0.9982 -2.33152,0.1461 -5.06315,-0.086 -6.867501,1.3974 -1.86344,1.5324 -1.93154,4.4217 -2.89732,6.6326 3.871371,0.8035 -4.55602,-0.6404 1.19441,-6.7734 2.569921,-2.7408 6.953741,-2.854 10.367241,-4.424 0.14819,-0.068 0.36669,-0.4895 0.21097,-0.4412 -1.93926,0.6012 -4.3232,0.6524 -5.70138,2.1433 -1.68073,1.8182 -1.78853,4.6178 -2.682811,6.9267 -3.3713,-4.3528 -2.44723,-2.5822 8.868851,-10.9447 0.70741,-0.5228 2.94812,0.892 2.23365,1.405 -1.44442,1.0373 -3.97048,-0.4251 -5.27744,0.7808 -5.52256,5.0955 -2.82399,11.236 -4.65616,6.2381 1.01313,-3.6011 0.20898,-8.3573 3.03939,-10.8033 2.38047,-2.0572 6.38131,-0.7228 9.43867,0.02 0.74852,0.1817 0.79255,1.8966 0.14049,2.3065 -2.96575,1.8643 -6.99399,1.6865 -9.80911,3.7713 -0.96341,0.7135 1.92058,4.661 0.14276,2.095 -2.5306,-3.3021 -5.592111,-6.0101 2.10631,-10.823 2.60368,-1.6278 6.17458,0.033 9.19237,0.5999 0.38741,0.073 -0.21554,0.9981 -0.60943,1.0135 -1.85682,0.073 -4.25208,-2.1315 -5.52078,-0.7738 -2.0472,2.1909 -1.30658,5.853 -1.95986,8.7795 6.56185,-3.806 -5.92719,4.1036 -0.87434,-3.4074 2.53187,-3.7636 6.70282,-6.1174 10.17971,-9.03065 0.5284,-0.4427 2.49321,-1.0379 1.8044,-1.0105 -1.6479,0.066 -3.69898,-0.082 -4.81675,1.1304 -1.96844,2.13555 -2.37128,5.30265 -3.55693,7.95395 1.15238,-1.0208 0.79279,-0.338 0.63574,-2.2261 2.69251,-3.0885 6.93939,-4.88855 8.88461,-8.49475 0.66674,-1.236 -2.92561,-0.7407 -4.20973,-0.172 -1.35225,0.599 -2.43817,1.938 -2.92825,3.3334 -0.21637,0.61615 0.81265,1.02235 1.21897,1.53355 -0.50374,-3.14875 -0.51385,-2.10005 2.46511,-7.60955 0.17724,-0.3277 1.09161,-0.644 1.08443,-0.2714 -0.0423,2.2021 0.1346,4.7479 -1.20412,6.4969 -0.64663,0.84485 -3.09866,0.1242 -3.05047,-0.9385 0.10212,-2.2529 2.23951,-3.9151 3.35928,-5.8726 1.37215,-0.874 2.80809,-1.6552 4.11647,-2.6221 0.36607,-0.2705 1.056,-1.4704 0.86332,-1.058 -1.24295,2.66 -2.80127,5.1658 -4.02895,7.833 -0.13097,0.2847 -0.15682,1.2167 -0.009,0.9402 1.50414,-2.8206 1.90255,-6.3594 4.12467,-8.6573 1.20366,-1.2447 3.41074,-0.5989 5.1161,-0.8984 -2.5092,1.0337 -5.16192,1.7713 -7.52761,3.101 -0.14441,0.081 0.42305,4.8475 0.83476,3.4308 0.6387,-2.1977 -1.07531,-5.2089 0.5241,-6.846 0.36029,-0.3688 21.44305,-5.36616 0.19835,1.5339 2.08737,-5.1517 -2.80325,5.9443 4.86275,-3.04543 0.47819,-0.56077 -1.32273,-2.31528 -1.52027,-1.60528 -0.81015,2.91161 0.25826,6.13801 -0.55115,9.04981 -0.47812,1.72 -9.96863,-1.8033 -2.45717,-4.7588 3.29619,-2.52869 6.42265,-5.29547 9.88858,-7.58594 0.26625,-0.17598 1.07054,0.34337 0.80431,0.5194 -1.80986,1.19683 -4.21248,1.41877 -5.86377,2.82633 -4.21148,3.58991 4.78108,5.40161 -0.23991,8.07541 3.11129,-4.0856 6.74657,-7.82074 9.33386,-12.25671 0.32359,-0.55483 -0.793,-1.28649 -1.4353,-1.28564 -3.46321,0.005 -5.77898,0.87901 -6.48627,4.29778 -0.0777,0.37509 0.87704,-0.7403 1.073,-0.41119 0.42908,0.72067 0.11783,1.67335 0.17665,2.51002 -0.42715,-1.40526 -1.04491,-2.76619 -1.28143,-4.21576 -0.33076,-2.02711 2.2747,-5.54339 2.757,-6.41271 0.32644,-0.58839 0.41019,-1.42724 0.99803,-1.75469 2.05602,-1.14528 7.35388,5.39746 3.8636,5.90954 -0.7476,1.4964 -6.70206,14.33916 -3.96714,-6.17425 0.40852,-3.06417 3.12363,-5.40732 5.27375,-7.62835 0.41762,-0.4314 1.51853,-0.1903 1.76552,0.35696 0.99484,2.2044 0.4921,4.97739 0.23316,7.28251 2.40308,1.06806 -1.71637,-0.56053 -0.66282,-3.2895 1.57798,-4.08742 4.14553,-7.81401 7.05277,-11.09195 0.5872,-0.66209 2.89499,-0.69925 2.6506,0.15131 -1.04848,3.64903 -7.94548,4.27318 -5.69639,9.86325 -2.74605,-2.38518 -5.28684,-4.12302 -1.67314,-10.11543 1.94568,-3.22644 6.11306,-4.5669 9.63042,-5.91739 1.25781,-0.48295 4.16619,-0.64415 3.98262,0.69063 -0.63869,4.64381 -24.63649,-9.00285 -6.3927,12.52552 -0.54458,-0.78819 -1.29534,-1.4683 -1.63374,-2.36457 -1.58254,-4.19161 -2.19698,-8.62272 2.03265,-12.18926 2.2786,-1.92139 7.83406,-5.70334 8.49314,-2.79655 4.91483,21.67629 -10.89235,9.39881 -5.31555,13.57112 2.80207,-1.29686 6.08193,-1.85804 8.4062,-3.89057 0.71513,-0.62536 0.0545,-3.02862 -0.84454,-2.72198 -4.58129,1.56248 -10.18603,3.07283 -12.55718,7.29269 -1.21657,2.16512 4.49507,3.07772 6.94809,2.68972 8.11002,-1.28278 -1.38549,-5.89851 3.23945,-3.37311 -0.4305,-9.0723 0.48164,-0.27837 -2.20509,1.77921 -2.81574,2.15638 -6.64616,2.48937 -10.03323,3.54107 -0.60861,0.18898 -2.53449,0.26261 -1.90462,0.16571 7.596,-1.16848 4.57888,0.3231 8.41697,-2.00188 -1.19828,-0.0106 -2.44249,-0.36158 -3.59482,-0.0328 -3.78295,1.07948 -7.23998,3.141 -11.02726,4.20522 -0.38644,0.10862 -1.21141,-0.75263 -0.8287,-0.87371 2.52449,-0.79872 5.18831,-1.15317 7.82947,-1.34124 0.41045,-0.0293 1.22416,0.36145 1.00852,0.71192 -0.82142,1.33502 -2.28501,2.14636 -3.4275,3.21952 -4.21995,4.46187 -2.73391,4.41267 -10.97683,3.46913 -1.42526,-0.16315 -5.23008,-0.87362 -3.99431,-1.60219 2.41225,-1.42219 5.62954,-0.28094 8.34546,-0.96313 0.63563,-0.15966 1.09664,-2.08149 1.31344,-1.46303 0.27875,0.7952 -0.67643,1.54358 -1.01465,2.31535 -0.97632,8.57971 0.60259,8.17311 -13.00856,11.54723 -1.62576,0.40303 -2.98252,-1.70496 -4.64364,-1.92003 -0.54621,-0.0707 0.3071,1.58906 0.83341,1.42673 12.66339,-3.90602 11.51753,-3.69793 6.77263,-5.1346 -0.57337,3.44279 -1.51974,10.12408 -3.59889,11.73468 -2.14123,1.6586 -5.4156,-0.1236 -8.1232,-0.1933 -0.80955,-0.021 -3.00398,0.491 -2.4282,-0.079 1.50468,-1.4881 4.31413,-1.3364 5.57639,-3.035 0.7841,-1.05524 -0.27057,-2.61535 -0.40585,-3.92298 1.60295,2.97513 3.17813,4.96138 -0.29568,9.19488 -2.34019,2.8519 -6.11716,4.1717 -9.43371,5.7873 -0.51608,0.2514 -1.87909,0.1662 -1.68135,-0.3727 0.47188,-1.2862 1.92682,-1.948 2.89022,-2.922 0.24936,-1.3355 0.49872,-2.671 0.74809,-4.0065 -0.64463,-0.7261 -2.88389,-1.9776 -1.93389,-2.1783 1.1398,-0.2408 3.43555,0.9537 2.88112,1.9782 -2.28777,4.2279 -6.31416,7.2609 -9.717611,10.65585 -0.50133,0.5001 -2.45842,1.3812 -1.90581,0.9384 1.23874,-0.9925 2.88884,-1.4583 3.98611,-2.6052 0.631641,-0.66035 0.641241,-1.71135 0.961861,-2.56695 -2.704961,-5.6368 -2.407321,-9.0986 -11.731601,-2.8474 -1.51684,1.017 -3.00531,4.17 -1.53869,5.25815 3.35934,2.4924 8.17089,1.7957 12.25633,2.6936 -0.19117,-0.1314 -0.47807,-0.6055 -0.57352,-0.3941 -0.50738,1.124 -0.58107,2.397 -0.87161,3.5954 -4.52417,1.2538 -9.01275,4.879 -13.57253,3.7615 -2.95475,-0.7242 -2.57178,-5.5309 -4.18115,-8.1125 -0.28106,-0.4509 -0.39008,1.4244 0.11481,1.5896 3.75773,1.2289 7.69853,2.0058 11.64418,2.256 0.91027,0.058 2.07593,-2.2307 2.37012,-1.3674 0.49247,1.4453 -0.89595,2.9194 -1.34392,4.379 -9.35552,5.0551 -0.54387,2.0701 -14.17803,-7.9616 -0.64844,-0.4771 -1.21506,1.2301 -1.3089,2.0297 -0.33474,2.852 -1.95521,6.5684 0.0595,8.6146 2.13799,2.1713 12.74305,3.559 9.11358,0.7153 -3.41984,0 -5.8707,0.986 -3.74532,-5.8617 0.26033,-0.8388 2.72395,-0.991 2.63208,-0.1175 -0.39685,3.7725 -2.6802,7.105 -3.74995,10.7444 -0.0897,0.3051 0.61845,0.7651 0.32849,0.8957 -0.81208,0.3655 -1.77806,0.1046 -2.66709,0.1571 -3.48662,-0.1638 -11.33705,2.887 -10.45985,-0.4914 1.17826,-4.538 7.72375,-5.9298 12.33994,-6.7496 1.7693,-0.3142 -1.82687,3.1744 -2.15601,4.941 -0.21309,1.1438 1.5426,2.7648 0.59465,3.4392 -8.05821,5.7337 -8.22969,4.1904 -13.02555,0.5534 -0.76339,-0.6328 -1.64958,-1.1414 -2.29016,-1.8982 -0.20412,-0.2412 1.02229,0.562 0.90941,0.2669 -0.66532,-1.7394 -2.57558,-3.0419 -2.68199,-4.9012 -0.11299,-1.9756 1.79686,-5.2053 3.71218,-6.4128 0.3791,-0.2389 0.86247,-0.2437 1.2937,-0.3656 -0.81467,2.6961 -1.62426,5.3937 -2.44404,8.0883 -0.0151,0.05 0.0397,-0.1023 0.0299,-0.1534 -0.22285,-1.1651 -0.88257,-2.308 -0.72567,-3.4838 1.48087,-11.09735 1.30758,0.9715 3.383,-6.5524 0.12811,-0.4646 -0.41097,-0.8718 -0.61645,-1.3077 3.52172,-0.3924 10.40828,-4.71715 10.56513,-1.1771 0.18446,4.1634 -6.19559,6.3795 -10.30351,7.0817 -5.15027,0.8803 -1.12636,-7.8759 -0.86906,-8.3026 0.28401,-0.47105 0.95441,-0.57645 1.32644,-0.98155 0.63241,-0.6887 1.10318,-1.5099 1.65477,-2.2648 4.42867,-0.8524 0.26327,-0.5285 -0.3221,2.8521 -0.20198,1.16655 1.42056,2.18095 1.19745,3.34355 -0.12342,0.6431 -1.96649,1.0712 -1.91932,0.4181 0.94959,-13.14845 0.56664,-10.68025 10.33064,-11.44775 4.97159,1.078 -1.09747,-0.5986 -4.69297,3.1569 -1.447,1.5114 -0.59481,4.3481 -1.90169,5.98215 -0.47217,0.5904 -1.41477,-0.8842 -1.58679,-1.62035 -1.77413,-7.5929 5.26108,-6.4989 11.83734,-9.3427 0.244,-2.7972 0.78196,-5.78992 -7.2459,0.8043 -1.24118,1.0195 -0.26223,3.2064 -0.54119,4.7882 -0.0387,0.2195 -0.17463,-0.4186 -0.19022,-0.6409 -0.62476,-8.90916 -1.0622,-4.5445 10.78341,-10.3176 0.69256,0.55509 1.48287,1.00649 2.07766,1.66525 0.10287,0.1139 -0.3021,0.0763 -0.43339,0.15588 -3.74133,2.26727 -7.27133,4.90787 -11.17638,6.87987 -0.61231,0.3092 0.98505,-1.0853 1.05325,-1.7679 0.0903,-0.9031 -0.83641,-1.7739 -0.61142,-2.6532 0.79826,-3.11949 2.39047,-5.97994 3.58569,-8.9699 2.96433,0.36305 5.96064,0.52317 8.89299,1.08918 1.2158,0.23468 4.23056,0.31414 3.48017,1.29911 -3.17142,4.16289 -7.69636,7.17471 -12.09538,10.00951 -0.54867,0.3535 -1.08623,-0.7474 -1.51831,-1.2366 -0.74819,-0.8472 -2.10752,-1.617 -1.99517,-2.7417 0.33455,-3.34878 2.14991,-6.37836 3.22487,-9.56755 3.83916,-0.57249 7.68348,-2.32338 11.5175,-1.71745 1.42753,0.2256 2.72711,2.60902 1.9899,3.8521 -4.41964,7.4525 -9.20723,14.2917 -11.8302,6.5504 -0.90625,-2.67465 -3.32571,-5.77163 -1.95842,-8.2426 2.01733,-3.64572 6.91748,-4.6467 10.37623,-6.97007 8.76639,6.66467 1.95238,-0.0699 -2.90487,4.21228 -1.79906,1.58608 -0.55587,5.02673 -2.06174,6.89345 -0.68221,0.84568 -0.83027,-2.03005 -0.99517,-3.10402 -0.96569,-6.28949 0.669,-5.39259 5.19208,-11.87303 3.16298,0.2618 6.51765,-0.33011 9.48896,0.7854 1.542231,0.57899 4.301671,2.87508 3.020941,3.91115 -3.678671,2.97591 -8.908491,3.21188 -13.453351,4.52832 -0.31806,0.0921 0.63899,-0.4745 0.58694,-0.80154 -0.26505,-1.66507 -1.90848,-3.20366 -1.48423,-4.83546 0.3681,-1.4158 2.29831,-1.81046 3.44746,-2.7157 -4.34216,2.94729 1.48722,-1.05963 10.754761,-4.99988 0.17111,-0.0728 0.33652,0.56272 0.15241,0.53661 -6.406461,-0.90835 -3.727581,-2.70643 -6.516191,1.32244 -0.19216,0.96603 -0.31218,1.94926 -0.57644,2.8981 -0.13716,0.49258 -1.11525,1.27026 -0.62133,1.40249 4.18095,1.1193 12.524881,6.18704 12.849021,1.87103 1.37889,-18.36017 -18.867501,-2.14908 -10.256611,-10.22872 0.83217,-0.78083 1.76902,-1.44199 2.65352,-2.16298 4.490841,3.29888 0.467041,-0.2961 0.566561,11.65284 0.003,0.33103 1.04833,0.1662 0.98052,-0.15782 -1.317341,-6.2951 -7.602771,-11.91463 -0.3032,-13.24205 -0.22722,1.471 -1.126191,2.9925 -0.68164,4.41301 0.54338,1.73625 2.71329,2.58512 3.3991,4.27021 0.19394,0.47652 -1.74988,1.04908 -1.37957,0.69195 5.38792,-5.19642 6.26467,-2.04462 4.55679,-12.38375 -0.0947,-0.57326 -1.14147,-0.21791 -1.71219,-0.32686 1.08858,4.40756 2.95892,8.69307 3.26578,13.22269 0.0541,0.79696 -1.57881,0.28441 -2.33288,0.54796 -1.01442,0.35455 -2.62199,2.32179 -2.9506,1.29869 -0.51856,-1.61442 1.98819,-3.05095 1.84507,-4.74055 -0.61861,-7.3029 -6.482051,-11.92875 0.0647,-5.77098 -0.55433,3.37589 -0.64083,6.86286 -1.66303,10.12769 -0.20436,0.65275 -1.21838,0.62341 -1.81033,0.96613 -0.99484,0.57598 -1.819651,2.00699 -2.948321,1.78897 -3.30658,-0.63875 -10.62976,-1.08208 -9.21646,-4.13889 1.58249,-3.42272 18.721691,-7.70062 11.118871,-2.08453 -1.583121,8.12105 0.6095,6.81556 -10.006021,7.47129 -1.12908,0.0698 -4.22868,-0.0734 -3.31266,-0.73713 3.74007,-2.71003 7.98246,-5.07643 12.52066,-5.93493 1.160471,-0.21953 0.810901,2.57082 0.13672,3.5405 -1.33144,1.91484 -3.70381,2.83532 -5.5557,4.25299 -2.08558,0.40705 -4.13381,1.12912 -6.25674,1.22115 -1.20103,0.0521 -4.64813,-0.38987 -3.51718,-0.7974 2.80609,-1.01116 6.7341,0.94212 8.87601,-1.13363 10.624191,-10.29602 -0.35226,-9.74915 -0.13067,-6.72535 0.16642,2.27174 0.56844,4.52006 0.85267,6.78009 -3.02538,1.62762 -5.82086,3.78499 -9.07613,4.88286 -1.17661,0.39681 -2.54213,-0.0828 -3.67959,-0.58092 -0.82829,-0.36268 -2.45848,-1.13621 -1.95106,-1.88461 2.45436,-3.62004 5.54131,-7.11322 9.42076,-9.13273 1.36116,-0.70857 3.71407,0.6092 4.09952,2.09454 0.58657,2.26037 -1.19929,4.51388 -1.79894,6.77082 -3.32874,1.93088 -6.25302,4.85885 -9.98623,5.79267 -1.14978,0.2876 -1.26496,-2.12219 -2.28674,-2.72273 -5.21213,-3.06339 -15.88645,2.92251 5.29899,-11.03663 2.22296,-1.46473 2.66792,9.39789 4.52259,6.5825 -0.99344,3.32965 -0.17482,7.93892 -2.98034,9.98895 -2.62543,1.91844 -6.60617,0.20215 -9.72974,-0.70155 -1.72137,-0.49801 -4.56291,-1.57527 -4.21747,-3.33362 3.69878,-18.82659 10.13177,-9.4911 16.1462,-2.90663 -1.4475,2.53108 -1.80429,6.15831 -4.34252,7.59323 -3.17879,1.79699 -7.29672,1.57859 -10.90645,1.02732 -1.74421,-0.2664 -4.49603,-1.5984 -4.12071,-3.32246 4.39064,-20.16841 8.96717,-11.06722 14.55044,-4.05104 -0.5454,11.46417 2.65143,15.39617 -15.39879,11.41227 -1.73219,-0.3823 -3.27805,-3.70499 -1.99747,-4.93249 2.27139,-2.17723 6.52207,-0.38651 9.22562,-1.996 5.61483,-3.34266 0.35355,-8.48318 4.98997,-2.39009 -0.16726,2.24333 1.29381,5.37487 -0.50178,6.72998 -4.40227,3.3225 -10.30609,3.9848 -15.62555,5.4414 -0.43773,0.1198 0.0193,-1.1379 0.44857,-1.2854 1.43847,-0.4946 3.3916,0.5633 4.54297,-0.4308 8.19672,-7.07673 4.85373,-6.42805 2.27903,-6.12095 -5.54546,-1.6403 -4.44145,-1.94379 -12.30209,5.86775 -0.6791,0.6749 -0.0897,2.1559 0.6131,2.806 0.70474,0.6519 1.95138,0.7313 2.85221,0.3995 1.59279,-0.5868 2.50859,-2.4848 4.13422,-2.9732 0.57122,-0.1717 -0.11194,1.1876 -0.16799,1.7814 -0.6685,-0.032 -1.34904,0.034 -2.0055,-0.096 -3.66988,-0.7283 -7.42227,-3.7264 -10.94814,-2.4747 -2.68998,0.9549 -3.10266,10.96855 1.02272,11.73155 1.79786,0.3325 3.05067,-2.0486 4.37181,-3.31255 0.64619,-0.6182 -1.54614,0.89925 -2.3192,1.34885 -2.49406,-5.29485 -0.67645,-3.68715 -6.24743,-6.11625 -0.5589,-0.2437 -1.94256,-1.1756 -1.72598,-0.6056 0.33775,0.8888 8.5148,10.12435 5.20128,12.74675 -1.02956,0.8148 -2.22784,1.3902 -3.34176,2.0852 -3.61631,-3.6384 -7.35109,-7.1628 -10.84893,-10.91535 -1.44438,-1.5495 -0.2973,-5.5739 3.54961,-4.1419 2.87951,1.0719 21.59312,8.21585 11.89844,16.14675 -1.87465,1.5336 -4.76679,0.8618 -7.15018,1.2927 -0.96393,0.5946 -9.37243,-13.03745 -8.4085,-13.63205 z"
       inkscape:connector-curvature="0" />
    <path
       id="dp_path002"
       d="m 228.99785,994.98895 c -12.44111,-23.1894 -37.28969,-43.29606 -68.07475,-52.38652 17.18691,-11.53907 28.52409,-31.16428 28.52409,-53.43482 0,-35.50886 -28.76095,-64.28536 -64.23748,-64.28536 -35.460971,0 -64.214141,28.7765 -64.214141,64.28536 0,22.27832 11.32164,41.91 28.51763,53.44387 -31.15781,9.20308 -56.23934,29.6954 -68.51221,53.24327"
       inkscape:connector-curvature="0"
       style="fill:none;fill-rule:evenodd;stroke:url(#linearGradient4885);stroke-width:15.52999973;stroke-linecap:round;stroke-linejoin:round;stroke-miterlimit:4;stroke-dasharray:none;fill-opacity:1" />
    <g
       transform="matrix(1.0920226,0,0,1.0842869,2.376429,-94.755511)"
       style="font-style:normal;font-variant:normal;font-weight:bold;font-stretch:normal;font-size:90px;line-height:125%;font-family:'Droid Sans';-inkscape-font-specification:'Droid Sans Bold';letter-spacing:0px;word-spacing:0px;fill:#000000;fill-opacity:1;stroke:none;stroke-width:1px;stroke-linecap:butt;stroke-linejoin:miter;stroke-opacity:1;"
       id="text4632">
      <path
         d="m 107.25431,918.0595 c -2.11241,-1.07729 -2.32661,-4.32829 -2.32661,-4.32829 0,0 0.39177,-2.34773 0.68474,-3.5489 0.32227,-1.23047 0.79102,-2.38769 1.40625,-3.47168 0.64453,-1.11328 1.46485,-2.18262 2.46094,-3.20801 0.99609,-1.05469 2.19727,-2.13867 3.60352,-3.25195 1.23047,-0.96679 2.2705,-1.83105 3.12011,-2.59277 0.84961,-0.76172 1.53809,-1.50879 2.06543,-2.24121 0.52735,-0.76172 0.90821,-1.55274 1.14258,-2.37305 0.23437,-0.82031 0.35156,-1.77246 0.35156,-2.85645 0,-1.66992 -0.57129,-3.04687 -1.71386,-4.13085 -1.11329,-1.08399 -2.82716,-1.62598 -5.14161,-1.62598 -2.02148,0 -4.2041,0.4248 -6.54785,1.27441 -2.31445,0.84961 -7.954398,1.88965 -9.403973,-1.53802 l -1.013563,-2.60825 c 0.334737,-2.71213 1.350156,-3.86642 2.814999,-4.51095 1.494137,-0.67383 3.032227,-1.25977 4.614257,-1.75782 1.61133,-0.52734 3.2373,-0.93749 4.87793,-1.23046 1.64063,-0.29297 3.25196,-0.43946 4.83399,-0.43946 2.98828,0 5.68359,0.36621 8.08593,1.09863 2.40235,0.70313 4.43848,1.74317 6.1084,3.12012 1.66992,1.37695 2.94433,3.04688 3.82324,5.00977 0.90821,1.96289 1.36231,4.2041 1.36231,6.72363 0,1.84571 -0.20508,3.50098 -0.61524,4.96582 -0.41015,1.43555 -1.02539,2.7832 -1.8457,4.04297 -0.79101,1.23047 -1.80176,2.43164 -3.03223,3.60352 -1.20117,1.14257 -2.60742,2.35839 -4.21875,3.64746 -1.23047,0.96679 -2.24121,1.8164 -3.03222,2.54882 -0.76172,0.70313 -1.36231,1.37696 -1.80176,2.02149 -0.43945,0.64453 -0.74707,1.31836 -0.92285,2.02148 -0.14649,0.67383 -0.17218,1.81671 -0.54678,3.81687 0,0 0.20486,1.21544 -2.10115,2.05201 -2.08413,0.75608 -5.07114,0.79773 -7.09204,-0.2329 z m -3.53152,14.44703 c 0,-1.37695 0.19043,-2.53418 0.57129,-3.47168 0.41016,-0.96679 0.9668,-1.74316 1.66992,-2.3291 0.70313,-0.58594 1.52344,-1.01074 2.46094,-1.27441 0.9668,-0.26367 1.99219,-0.39551 3.07617,-0.39551 1.02539,0 1.99219,0.13184 2.90039,0.39551 0.9375,0.26367 1.75781,0.68847 2.46094,1.27441 0.70313,0.58594 1.25977,1.36231 1.66992,2.3291 0.41016,0.9375 0.61524,2.09473 0.61524,3.47168 0,1.31836 -0.20508,2.44629 -0.61524,3.38379 -0.41015,0.9375 -0.96679,1.71387 -1.66992,2.3291 -0.70313,0.61523 -1.52344,1.05469 -2.46094,1.31836 -0.9082,0.29297 -1.875,0.43945 -2.90039,0.43945 -1.08398,0 -2.10937,-0.14648 -3.07617,-0.43945 -0.9375,-0.26367 -1.75781,-0.70313 -2.46094,-1.31836 -0.70312,-0.61523 -1.25976,-1.3916 -1.66992,-2.3291 -0.38086,-0.9375 -0.57129,-2.06543 -0.57129,-3.38379 z"
         id="path4791"
         inkscape:connector-curvature="0"
         sodipodi:nodetypes="scccccscsscscccccsscscscccccsccssscscscscssscscscs"
         style="fill-opacity:1;fill:url(#linearGradient4920)" />
    </g>
  </g>
</svg>
